<svg width="1426" height="625" viewBox="0 0 1426 625" fill="none" xmlns="http://www.w3.org/2000/svg">
<path d="M516.258 156.826L516.558 324.026L371.258 324.226L370.958 157.026L258.558 157.226L259.258 622.126L371.658 621.926L371.358 427.926L516.658 427.726L516.958 621.726L629.358 621.526L628.658 156.626L516.258 156.826ZM91.5576 285.726L92.0576 623.026L195.058 622.826L194.558 285.226L91.5576 285.726ZM879.858 283.826L880.158 476.226C880.258 511.726 867.158 529.926 840.858 530.826H835.058C808.758 530.026 795.658 511.826 795.558 476.326L795.258 283.926L691.958 284.126L692.258 476.526C692.458 570.126 740.058 616.126 835.258 621.126H841.058C936.158 615.826 983.658 569.626 983.558 476.026L983.258 283.626L879.858 283.826ZM1409.96 376.526C1400.06 355.026 1386.06 336.226 1368.26 320.126C1350.16 303.826 1329.76 291.426 1307.16 283.126C1283.86 274.726 1259.96 270.626 1235.46 270.626C1211.16 270.626 1187.36 274.926 1164.16 283.326L1156.76 286.526L1149.36 289.726L1149.16 153.426L1046.16 153.926L1046.66 449.326C1046.96 482.026 1055.66 511.626 1072.96 538.026C1090.26 564.926 1113.46 585.926 1142.76 601.226C1172.06 616.726 1203.16 624.326 1236.16 624.326C1261.36 624.326 1285.26 619.826 1307.86 610.926C1330.26 602.726 1350.56 590.326 1368.86 573.726C1386.96 557.126 1400.86 538.126 1410.76 516.826C1420.66 495.526 1425.56 472.026 1425.46 446.426C1425.26 421.626 1420.16 398.226 1409.96 376.526ZM1296.56 506.226C1279.56 522.826 1259.36 531.126 1235.86 531.226C1212.66 531.226 1192.46 523.026 1175.46 506.426C1158.26 489.926 1149.56 470.126 1149.56 447.026C1149.56 431.926 1153.46 418.226 1161.46 405.726C1169.36 393.026 1180.06 382.926 1193.36 375.326C1206.66 367.726 1220.76 364.026 1235.66 363.926C1250.96 363.926 1265.16 367.626 1278.26 375.126C1291.66 382.626 1302.26 392.726 1310.26 405.426C1318.26 417.926 1322.26 431.626 1322.26 446.726C1322.26 469.826 1313.76 489.626 1296.56 506.226Z" fill="#1D1D1B"/>
<path d="M138.558 134.326C157.158 126.826 174.158 113.926 188.658 98.926C195.958 91.426 202.558 83.226 208.358 74.526C214.158 65.926 219.058 56.726 222.058 47.326C223.558 42.626 224.558 38.026 224.558 33.526C224.558 29.126 223.658 25.026 221.658 21.826C219.758 18.626 216.658 16.026 212.458 14.526C208.358 12.926 203.558 12.226 198.458 12.126C188.358 12.026 177.758 14.126 167.258 17.026C156.958 19.926 146.558 23.726 136.158 27.726C145.158 21.126 154.658 15.126 164.858 10.326C169.958 7.82601 175.258 5.72601 180.758 4.02601C186.258 2.22601 191.958 0.926012 197.958 0.326012C203.958 -0.273988 210.358 -0.173986 216.758 1.72601C223.158 3.52601 229.658 7.52601 233.958 13.526C238.258 19.526 240.058 26.626 240.458 33.226C240.858 39.826 239.858 46.226 238.258 52.126C235.058 63.926 229.858 74.626 223.858 84.626C217.758 94.626 210.558 103.826 202.758 112.426C194.758 120.926 186.158 128.826 176.458 135.526C166.858 142.326 156.358 148.126 144.858 152.126L138.558 134.326Z" fill="url(#paint0_linear)"/>
<path d="M245.458 33.426C248.558 43.526 236.958 117.026 147.858 160.426C149.558 166.726 152.258 170.726 152.258 170.726C152.258 170.726 198.858 150.226 229.358 106.826C251.358 75.626 252.258 49.926 245.458 33.426Z" fill="url(#paint1_linear)"/>
<path d="M253.358 56.826C256.458 66.926 244.858 140.426 155.758 183.826C157.458 190.126 160.158 194.126 160.158 194.126C160.158 194.126 206.758 173.626 237.258 130.226C259.158 99.026 260.158 73.326 253.358 56.826Z" fill="url(#paint2_linear)"/>
<path d="M153.758 120.526C139.058 106.926 120.058 97.126 100.358 90.426C90.4578 87.026 80.1578 84.626 69.9578 83.126C59.6578 81.626 49.2578 81.126 39.4578 82.426C34.5578 83.026 29.9578 84.226 25.9578 86.026C21.9578 87.926 18.6578 90.426 16.6578 93.626C14.5578 96.726 13.6578 100.626 13.9578 105.026C14.2578 109.426 15.6578 114.126 17.7578 118.726C21.9578 127.926 28.4578 136.626 35.5578 144.826C42.6578 153.026 50.5578 160.726 58.6578 168.426C48.8578 163.226 39.3578 157.126 30.5578 149.926C26.1578 146.426 21.9578 142.526 17.9578 138.326C13.9578 134.126 10.3578 129.526 7.25778 124.326C4.15778 119.126 1.55778 113.326 0.45778 106.726C-0.64222 100.226 0.157779 92.526 3.75778 86.126C7.25778 79.726 12.9578 75.026 18.7578 71.826C24.5578 68.626 30.7578 66.826 36.7578 65.626C48.7578 63.426 60.6578 63.526 72.3578 64.726C83.9578 65.926 95.3578 68.426 106.558 71.926C117.658 75.526 128.458 79.926 138.758 85.726C149.058 91.426 158.758 98.426 167.258 107.126L153.758 120.526Z" fill="url(#paint3_linear)"/>
<path d="M16.6577 67.226C24.4577 60.026 95.8577 39.026 173.258 100.826C178.158 96.526 180.658 92.426 180.658 92.426C180.658 92.426 142.158 59.226 89.8577 50.226C52.2577 43.826 28.6577 54.026 16.6577 67.226Z" fill="url(#paint4_linear)"/>
<path d="M34.458 50.026C42.258 42.826 113.658 21.826 190.958 83.626C195.858 79.326 198.358 75.226 198.358 75.226C198.358 75.226 159.858 42.126 107.558 33.126C70.058 26.626 46.358 36.826 34.458 50.026Z" fill="url(#paint5_linear)"/>
<path d="M129.858 110.826C127.558 130.726 130.758 151.826 137.058 171.726C140.158 181.726 144.258 191.426 149.058 200.626C153.858 209.826 159.658 218.526 166.458 225.726C169.858 229.326 173.458 232.326 177.358 234.526C181.258 236.626 185.258 237.826 188.958 237.626C192.658 237.426 196.458 235.926 199.758 233.126C203.058 230.326 206.058 226.426 208.558 222.026C213.458 213.226 216.658 202.826 219.158 192.326C221.558 181.726 223.158 170.826 224.658 159.726C226.158 170.726 226.858 182.026 226.258 193.326C225.958 199.026 225.358 204.626 224.258 210.326C223.258 216.026 221.558 221.626 219.258 227.226C216.958 232.826 213.758 238.326 209.058 243.026C204.458 247.726 197.858 251.626 190.558 252.526C183.258 253.426 176.158 251.726 170.158 248.826C164.158 245.926 159.058 242.026 154.558 237.926C145.658 229.526 138.858 219.826 132.858 209.726C126.958 199.626 122.358 188.926 118.558 177.926C114.958 166.926 112.158 155.526 110.758 143.826C109.358 132.126 109.258 120.126 111.258 108.226L129.858 110.826Z" fill="url(#paint6_linear)"/>
<path d="M167.458 252.926C157.058 250.826 98.0576 205.526 102.458 106.626C96.1576 105.126 91.3576 105.526 91.3576 105.526C91.3576 105.526 87.1576 156.226 110.658 203.726C127.558 237.926 149.758 251.026 167.458 252.926Z" fill="url(#paint7_linear)"/>
<path d="M143.158 248.726C132.758 246.626 73.7578 201.326 78.1578 102.426C71.8578 100.926 67.0578 101.326 67.0578 101.326C67.0578 101.326 62.8578 152.026 86.3578 199.526C103.258 233.726 125.458 246.826 143.158 248.726Z" fill="url(#paint8_linear)"/>
<defs>
<linearGradient id="paint0_linear" x1="194.889" y1="48.1441" x2="119.288" y2="115.054" gradientUnits="userSpaceOnUse">
<stop stop-color="#EDE7DF"/>
<stop offset="1" stop-color="#EDEFF2"/>
</linearGradient>
<linearGradient id="paint1_linear" x1="226.756" y1="82.5678" x2="161.094" y2="145.917" gradientUnits="userSpaceOnUse">
<stop stop-color="#EDE7DF"/>
<stop offset="1" stop-color="#EDEFF2"/>
</linearGradient>
<linearGradient id="paint2_linear" x1="232.756" y1="109.697" x2="155.728" y2="159.022" gradientUnits="userSpaceOnUse">
<stop stop-color="#EDE7DF"/>
<stop offset="1" stop-color="#EDEFF2"/>
</linearGradient>
<linearGradient id="paint3_linear" x1="33.8971" y1="105.7" x2="138.102" y2="136.775" gradientUnits="userSpaceOnUse">
<stop stop-color="#E20613"/>
<stop offset="1" stop-color="#E3898F"/>
</linearGradient>
<linearGradient id="paint4_linear" x1="58.6781" y1="59.4179" x2="172.226" y2="98.9781" gradientUnits="userSpaceOnUse">
<stop stop-color="#E20613"/>
<stop offset="1" stop-color="#E3898F"/>
</linearGradient>
<linearGradient id="paint5_linear" x1="88.8923" y1="46.7081" x2="195.839" y2="89.7542" gradientUnits="userSpaceOnUse">
<stop stop-color="#E20613"/>
<stop offset="1" stop-color="#E3898F"/>
</linearGradient>
<linearGradient id="paint6_linear" x1="91.7687" y1="156.415" x2="225.966" y2="210.43" gradientUnits="userSpaceOnUse">
<stop stop-color="#819DD1"/>
<stop offset="1" stop-color="#263683"/>
</linearGradient>
<linearGradient id="paint7_linear" x1="71.405" y1="155.199" x2="187.951" y2="202.109" gradientUnits="userSpaceOnUse">
<stop stop-color="#819DD1"/>
<stop offset="1" stop-color="#263683"/>
</linearGradient>
<linearGradient id="paint8_linear" x1="47.0979" y1="150.951" x2="163.644" y2="197.861" gradientUnits="userSpaceOnUse">
<stop stop-color="#819DD1"/>
<stop offset="1" stop-color="#263683"/>
</linearGradient>
</defs>
</svg>
