<svg width="440" height="457" viewBox="0 0 440 457" fill="none" xmlns="http://www.w3.org/2000/svg">
<g clip-path="url(#clip0)">
<path d="M439.954 -0.109131H0.0268555V389.37H439.954V-0.109131Z" fill="#FEF4E9"/>
<path d="M440 -0.109131H0.0134277V456.517H440V-0.109131Z" fill="#F0F5FF"/>
<path opacity="0.3" d="M152.54 253.152V417.393C152.54 425.952 159.478 432.892 168.055 432.892H175.002C175.232 433.765 175.568 434.715 176.05 435.703L173.985 456.515H332.235C332.22 450.274 332.199 442.183 332.166 432.892H334.255C342.814 432.892 349.752 425.951 349.752 417.393V396.166V208.756C349.752 202.709 344.86 197.798 338.796 197.798H283.914C287.705 197.717 292.256 194.789 295.437 189.975C299.714 183.507 299.895 176.092 295.845 173.415C293.464 171.841 290.152 172.265 286.957 174.186C287.58 171.39 288.199 168.601 288.779 166.016C289.111 164.533 289.429 163.251 289.721 162.131L289.613 161.969C289.941 161.29 290.316 160.514 290.728 159.639C291.574 157.854 294.725 140.139 294.818 139.817C296.954 132.495 291.616 119.68 264.912 118.037C237.934 114.455 228.437 124.585 225.186 131.211C220.903 131.116 216.278 130.892 212.388 130.42C210.607 130.203 208.675 131.774 205.787 133.255C204.085 132.658 201.458 132.074 199.196 134.459C195.671 134.288 194.245 136.556 191.125 140.036C188.938 142.469 180.486 151.658 177.094 155.018C175.486 156.611 173.881 157.894 172 159.412C166.265 155.829 161.277 155.029 161.277 155.029C160.386 155.681 159.521 156.358 158.678 157.052L157.942 157.625C157.944 157.643 157.946 157.659 157.948 157.677C134.502 177.569 129.059 213.187 130.451 222.058C131.052 225.869 140.811 238.749 152.54 253.152ZM283.054 197.76C283.272 197.783 283.491 197.795 283.714 197.796H283.05L283.054 197.76ZM223.813 139.814C223.855 140.571 223.901 141.416 223.946 142.311C223.693 141.606 223.384 140.758 223.017 139.865C223.271 139.852 223.541 139.834 223.813 139.814ZM183.852 188.144L185.225 187.135C186.199 186.447 187.192 185.792 188.213 185.183C187.281 179.383 185.47 174.68 183.209 170.868C185.198 169.024 186.709 167.703 186.979 167.458C188.327 166.242 194.702 168.581 199.522 167.026C204.345 165.472 221.921 159.156 224.012 159.333C224.496 157.876 224.526 155.426 220.394 154.812C218.462 154.526 214.816 155.847 211.989 156.716C210.265 157.248 206.151 158.195 206.151 158.195L208.134 151.855L209.62 149.363L209.547 149.257L209.58 149.22C210.31 150.237 210.986 151.155 211.485 151.792C213.153 153.913 215.347 153.913 216.634 153.677C216.918 153.665 217.219 153.584 217.539 153.442C217.647 153.404 217.708 153.377 217.708 153.377L217.705 153.369C217.711 153.366 217.717 153.364 217.723 153.361C217.609 153.06 217.149 152.165 216.636 151.149C216.355 150.569 216.048 149.942 215.752 149.347C215.601 149.028 215.462 148.72 215.345 148.447C215.333 148.45 215.321 148.456 215.309 148.46C214.953 147.756 214.648 147.179 214.482 146.917C214.337 146.691 213.95 145.937 213.465 144.971L216.745 141.386C217.696 143.229 219.522 146.583 221.416 149.039C222.428 150.352 223.478 151.003 224.432 151.297C224.574 153.509 224.719 155.239 224.863 155.796C225.527 158.411 226.013 160.257 226.013 160.257L226.034 160.227C226.077 160.631 226.123 161.02 226.165 161.459C226.451 164.368 226.75 167.546 227.057 170.721C224.042 168.237 220.669 167.307 218.027 168.621C213.676 170.783 212.946 178.162 216.397 185.107C219.231 190.811 224.003 194.439 228.027 194.357L228.041 197.799H203.888H173.787C176.736 194.343 180.106 190.987 183.852 188.144Z" fill="#737B7D"/>
<path d="M75.7578 340.064C71.1815 320.876 62.0169 298.709 28.7233 279.806L28.9491 279.403C43.4992 287.666 54.3418 296.907 62.0961 307.651C68.6241 316.702 73.1078 326.966 76.208 339.956L75.7578 340.064Z" fill="#1F573B"/>
<path d="M79.8152 340.798C77.0664 333.836 73.0269 329.62 67.4725 327.917C62.1813 326.291 55.2031 326.866 46.1447 329.677L46.0071 329.236C64.5756 323.478 74.8141 326.888 80.2429 340.629L79.8152 340.798Z" fill="#1F573B"/>
<path d="M78.037 340.134L77.5839 340.052C80.7709 322.255 80.4628 288.96 69.8026 270.66L70.2004 270.428C76.5101 281.259 78.707 296.029 79.4398 306.513C80.394 320.191 79.3411 332.849 78.037 340.134Z" fill="#1F573B"/>
<path d="M79.7928 319.089L79.3472 318.977C81.8821 309.03 90.1644 295.527 99.0449 286.87L99.3664 287.201C90.5413 295.806 82.3068 309.218 79.7928 319.089Z" fill="#1F573B"/>
<path d="M81.206 336.02L80.7917 335.821C84.8282 327.304 90.4888 321.875 97.6135 319.681C106.113 317.067 115.111 319.642 120.697 322.923L120.465 323.321C114.962 320.091 106.105 317.553 97.7511 320.124C90.755 322.274 85.1871 327.622 81.206 336.02Z" fill="#1F573B"/>
<path d="M15.1976 271.896C24.612 273.853 28.0114 278.92 29.2616 281.169C18.2455 278.09 15.1976 271.896 15.1976 271.896Z" fill="#27BEC2"/>
<path d="M31.6007 270.784C31.0563 278.519 39.9323 287.615 39.9323 287.615C40.894 281.519 33.6227 272.585 31.6007 270.784Z" fill="#27BEC2"/>
<path d="M35.9422 285.043C25.786 281.744 17.8911 285.468 17.8911 285.468C26.6131 288.719 27.0767 286.002 30.7108 286.311C34.348 286.622 35.9422 285.043 35.9422 285.043Z" fill="#27BEC2"/>
<path d="M43.3301 289.986C35.9092 288.433 34.979 290.961 31.0966 291.45C27.2142 291.939 25.3717 292.045 25.3717 292.045C30.3907 295.162 35.9362 292.459 38.9616 291.991C41.9856 291.525 43.3301 289.986 43.3301 289.986Z" fill="#27BEC2"/>
<path d="M48.916 294.339C47.582 291 44.6238 288.559 44.5012 283.348C44.3786 278.138 45.1862 275.993 45.1862 275.993C48.6364 282.394 50.2246 288.112 48.916 294.339Z" fill="#27BEC2"/>
<path d="M36.3042 300.61C40.0371 301.228 42.7948 302.524 48.0113 301.788C53.2277 301.05 56.4117 301.364 56.4117 301.364C50.6898 297.854 47.6523 297.706 43.8806 298.232C40.1103 298.761 38.1602 299.949 36.3042 300.61Z" fill="#27BEC2"/>
<path d="M58.6085 303.773C53.0945 295.289 52.423 283.541 53.9918 280.117C55.7895 286.449 57.5886 288.462 58.278 294.119C58.9705 299.777 58.6085 303.773 58.6085 303.773Z" fill="#27BEC2"/>
<path d="M65.6017 313.054C60.9955 303.022 61.8674 292.313 63.7383 290.552C63.7951 292.992 66.7922 299.719 67.1795 304.923C67.5638 310.126 65.6017 313.054 65.6017 313.054Z" fill="#27BEC2"/>
<path d="M63.7591 310.316C54.7051 304.886 43.7144 306.463 41.3724 307.575C45.9996 307.862 47.4772 309.631 53.8452 310.537C59.5238 311.346 63.7591 310.316 63.7591 310.316Z" fill="#27BEC2"/>
<path d="M69.496 306.157C69.659 309.462 71.5883 312.915 72.84 317.571C74.0559 322.087 72.4392 326.266 72.4392 326.266C68.2278 319.615 68.8185 307.349 69.496 306.157Z" fill="#27BEC2"/>
<path d="M49.5681 315.565C55.3693 315.341 62.1964 313.86 69.3645 319.59C64.3754 320.498 55.0223 319.395 49.5681 315.565Z" fill="#27BEC2"/>
<path d="M72.9193 327.458C65.9561 320.284 52.7819 321.383 52.9629 321.643C64.1809 327.187 69.6875 327.482 72.9193 327.458Z" fill="#27BEC2"/>
<path d="M47.9514 329.779C38.6686 331.041 35.3829 337.277 33.189 341.202C39.9996 339.105 45.735 333.536 47.9514 329.779Z" fill="#27BEC2"/>
<path d="M55.1628 327.873C46.8806 324.778 40.6382 324.993 35.0883 330.079C39.0529 328.744 45.9728 329.529 55.1628 327.873Z" fill="#27BEC2"/>
<path d="M45.3462 338.363C50.4863 333.226 51.5811 329.629 58.1211 327.391C56.4476 334.213 49.7984 336.851 45.3462 338.363Z" fill="#27BEC2"/>
<path d="M64.1539 327.183C60.4914 321.917 51.0695 321.518 49.224 321.568C54.7889 325.34 58.9106 326.586 64.1539 327.183Z" fill="#27BEC2"/>
<path d="M70.2812 328.596C62.7707 327.094 58.5383 331.523 55.8628 334.599C60.8295 332.414 67.0389 332.752 70.2812 328.596Z" fill="#27BEC2"/>
<path d="M58.8956 255.627C64.4695 259.785 66.8205 261.512 68.1515 264.846C69.4855 268.179 69.9237 271.622 69.9237 271.622C65.7856 268.069 62.0243 265.187 58.8956 255.627Z" fill="#27BEC2"/>
<path d="M69.671 260.917C75.4557 272.397 73.694 279.652 73.694 279.652C72.3988 274.381 68.2771 267.811 69.671 260.917Z" fill="#27BEC2"/>
<path d="M75.7056 285.894C72.5979 282.755 65.5374 280.016 62.4043 270.261C69.7848 275.365 71.3117 275.678 75.7056 285.894Z" fill="#27BEC2"/>
<path d="M77.4672 270.896C81.2165 281.631 77.4269 292.811 77.4269 292.811C77.5405 288.118 74.5375 281.126 77.4672 270.896Z" fill="#27BEC2"/>
<path d="M65.6405 281.534C74.0035 283.648 74.9996 292.425 77.8291 294.888C71.3535 294.465 71.7214 287.662 65.6405 281.534Z" fill="#27BEC2"/>
<path d="M79.0839 303.293C84.3811 298.451 80.1742 287.897 82.1587 282.387C77.6587 287.523 78.7474 294.203 79.1153 297.374C79.4832 300.544 79.3711 301.407 79.0839 303.293Z" fill="#27BEC2"/>
<path d="M79.7853 309.115C72.4138 305.92 72.843 296.805 66.967 294.83C70.9392 293.615 75.3346 298.202 76.8151 302.191C78.2942 306.179 78.5305 307.494 79.7853 309.115Z" fill="#27BEC2"/>
<path d="M79.9797 314.666C82.7794 310.932 82.89 307.987 83.0007 304.222C83.1099 300.459 84.0939 297.399 85.0526 296.057C80.9429 298.067 80.7858 304.473 80.6632 308.171C80.5391 311.868 80.379 313.415 79.9797 314.666Z" fill="#27BEC2"/>
<path d="M80.0755 319.558C73.0614 316.599 75.0176 309.23 69.6949 303.513C74.9114 305.041 75.8177 309.604 77.3596 313.857C78.9045 318.109 79.2828 318.74 80.0755 319.558Z" fill="#27BEC2"/>
<path d="M80.0635 323.427C86.1952 322.295 87.1987 317.323 89.3582 313.708C91.5178 310.093 92.285 309.087 93.7222 308.458C90.9435 308.126 86.8577 311.258 84.586 315.535C82.3083 319.813 81.7953 322.002 80.0635 323.427Z" fill="#27BEC2"/>
<path d="M79.8496 329.565C74.349 326.466 75.6621 317.634 73.1392 314.285C77.6258 318.079 77.382 320.728 78.1148 323.873C78.8476 327.021 79.2544 328.784 79.8496 329.565Z" fill="#27BEC2"/>
<path d="M79.5446 333.805C86.4464 330.184 89.8533 317.788 92.5662 315.414C86.6304 318.844 84.8193 322.721 82.8826 327.386C80.9459 332.052 80.2549 332.706 79.5446 333.805Z" fill="#27BEC2"/>
<path d="M81.6772 313.679C88.8349 311.08 92.988 302.499 96.1959 301.355C92.6679 300.036 86.9012 305.451 85.5671 307.198C84.2331 308.945 82.1139 312.465 81.6772 313.679Z" fill="#27BEC2"/>
<path d="M84.4948 307.21C81.1269 300.142 87.9211 294.701 87.5562 290.274C88.8064 295.773 86.3418 300.433 85.7167 303.236C85.0885 306.039 84.4948 307.21 84.4948 307.21Z" fill="#27BEC2"/>
<path d="M87.7102 301.319C97.3265 298.935 98.7383 294.483 104.24 292.703C98.4317 292.642 93.8344 295.491 91.3085 297.531C88.7825 299.571 87.7102 301.319 87.7102 301.319Z" fill="#27BEC2"/>
<path d="M90.3677 297.139C87.8612 292.293 93.1853 285.578 91.7705 281.52C94.9261 286.588 92.7531 293.352 90.3677 297.139Z" fill="#27BEC2"/>
<path d="M93.3812 292.948C102.441 292.021 106.476 283.914 110.78 281.715C105.841 282.11 100.893 287.787 98.8803 289.212C96.8673 290.633 93.3812 292.948 93.3812 292.948Z" fill="#27BEC2"/>
<path d="M95.6904 290.084C94.2038 283.9 99.154 278.437 102.447 272.554C102.971 277.951 97.3399 286.232 95.6904 290.084Z" fill="#27BEC2"/>
<path d="M98.0548 287.425C100.276 279.862 105.866 274.784 112.623 273.173C108.509 274.92 108.416 278.931 103.44 283.567C99.5698 287.177 98.0548 287.425 98.0548 287.425Z" fill="#27BEC2"/>
<path d="M120.326 321.624C129.72 323.979 135.461 329.586 136.937 333.51C133.636 330.618 128.685 330.603 124.446 327.138C120.211 323.675 120.326 321.624 120.326 321.624Z" fill="#27BEC2"/>
<path d="M110.765 318.53C122.283 326.051 126.427 329.864 126.376 333.361C125.108 329.896 120.159 328.328 115.959 325.291C110.837 321.582 110.765 318.53 110.765 318.53Z" fill="#27BEC2"/>
<path d="M134.68 324.456C131.007 319.792 125.051 317.677 120.237 317.807C114.628 317.957 112.738 318.909 112.738 318.909C119.707 321.903 127.838 319.735 134.68 324.456Z" fill="#27BEC2"/>
<path d="M106.093 318.145C112.025 312.318 120.871 315.278 123.892 314.68C120.911 316.993 111.13 319.032 106.093 318.145Z" fill="#27BEC2"/>
<path d="M99.0822 319.113C108.531 316.295 110.587 310.968 110.587 310.968C100.371 313.382 99.0822 319.113 99.0822 319.113Z" fill="#27BEC2"/>
<path d="M100.072 311.939C96.0298 316.793 92.614 317.424 90.5038 320.314C88.926 322.47 89.3418 324.779 89.3418 324.779C96.6489 320.729 99.4905 315.251 100.072 311.939Z" fill="#27BEC2"/>
<path d="M115.799 328.21C113.722 325.608 110.39 324.169 106.412 323.338C102.434 322.506 100.398 318.772 100.398 318.772C108.334 318.039 114.154 324.168 115.799 328.21Z" fill="#27BEC2"/>
<path d="M108.171 326.632C105.151 324.024 102.169 324.449 98.3942 324.8C94.6195 325.152 90.9031 323.403 90.9031 323.403C94.7301 320.092 104.077 319.434 108.171 326.632Z" fill="#27BEC2"/>
<path d="M85.41 329.436C86.596 325.989 96.6415 323.207 101.925 329.047C99.3006 327.77 96.1166 328.057 93.3543 328.91C89.1504 330.211 85.41 329.436 85.41 329.436Z" fill="#27BEC2"/>
<path d="M81.903 334.117C83.7006 331.052 92.5228 328.092 97.7093 332.754C94.1918 331.523 91.2874 333.462 87.9898 334.141C84.6936 334.82 81.903 334.117 81.903 334.117Z" fill="#27BEC2"/>
<path d="M96.6474 374.974H61.3453C60.7576 374.974 60.282 374.5 60.282 373.912V334.65H97.7093V373.912C97.7093 374.498 97.2352 374.974 96.6474 374.974Z" fill="#6875F5"/>
<path d="M363.076 324.729L366.146 325.71L378.622 286.658C378.622 286.658 378.607 285.999 377.301 285.535C376.262 285.169 375.551 285.677 375.551 285.677L363.076 324.729Z" fill="#E5E7EB"/>
<path d="M374.85 316.832C374.85 316.832 370.208 314.046 359.598 316.303C348.989 318.555 345.805 319.75 345.805 319.75C345.805 319.75 341.561 337.39 345.01 349.459C348.458 361.528 351.376 367.626 351.376 367.626H368.617C368.617 367.626 366.098 354.547 368.748 341.523C371.401 328.502 374.85 316.832 374.85 316.832Z" fill="#6875F5"/>
<path opacity="0.2" d="M374.579 316.724C374.478 316.666 374.337 316.596 374.18 316.519C372.568 315.864 367.93 314.527 359.599 316.301C357.829 316.676 356.283 317.019 354.907 317.335C354.81 317.364 354.723 317.387 354.626 317.414C354.629 317.409 354.629 317.403 354.629 317.399C347.968 318.939 345.807 319.747 345.807 319.747C345.807 319.747 345.774 319.889 345.715 320.142C345.714 320.145 345.714 320.151 345.714 320.151C345.702 320.204 345.689 320.266 345.677 320.329C345.66 320.39 345.647 320.45 345.633 320.522C345.627 320.539 345.626 320.56 345.621 320.58C345.518 321.058 345.376 321.736 345.219 322.576C345.211 322.62 345.202 322.659 345.195 322.704C345.174 322.81 345.153 322.928 345.132 323.041C345.105 323.19 345.08 323.335 345.05 323.492C345.039 323.554 345.029 323.619 345.019 323.682C344.981 323.901 344.939 324.13 344.9 324.364C344.896 324.384 344.894 324.404 344.89 324.425C343.874 330.486 342.668 341.256 345.01 349.457C348.458 361.526 351.376 367.625 351.376 367.625H361.149C359.73 364.136 357.342 357.748 354.701 348.506C352.417 340.512 352.887 330.539 353.8 323.05C355.261 322.718 356.865 322.363 358.64 321.981C365.534 320.504 370.366 320.919 373.525 321.48L373.547 321.47C374.205 319.045 374.676 317.418 374.81 316.962C374.772 316.875 374.702 316.793 374.579 316.724Z" fill="#5145CD"/>
<path d="M359.359 320.791C366.254 319.558 371.086 319.905 374.244 320.373C374.337 320.388 374.567 320.24 374.59 320.158C375.037 318.538 375.426 317.246 375.556 316.795C375.599 316.648 375.514 316.509 375.296 316.409C374.048 315.827 369.14 314.017 359.72 316.02C350.135 318.054 346.364 319.259 345.525 319.546C345.397 319.59 345.315 319.705 345.276 319.881C345.155 320.415 344.87 321.712 344.547 323.535C344.532 323.617 344.657 323.74 344.739 323.72C347.341 323.109 351.91 322.123 359.359 320.791Z" fill="#E5E7EB"/>
<path d="M331.807 199.035V407.674C331.807 416.233 324.868 423.172 316.31 423.172H150.108C141.532 423.172 134.594 416.231 134.594 407.674V199.035C134.594 192.988 139.504 188.077 145.55 188.077H320.851C326.917 188.077 331.807 192.988 331.807 199.035Z" fill="#139B9B"/>
<path d="M331.807 199.035V386.445C326.413 388.214 320.795 389.404 315.174 390.184C269.739 396.435 221.608 373.402 197.98 334.089C182.632 308.544 177.478 277.902 178.298 248.117C178.854 227.909 181.998 207.929 185.943 188.077H320.851C326.917 188.077 331.807 192.988 331.807 199.035Z" fill="#27BEC2"/>
<path d="M192.052 251.091L190.427 309.619C190.427 309.619 187.923 306.54 172.755 288.665C158.998 272.449 113.819 220.687 112.506 212.333C111.048 203.055 117.057 164.506 143.332 145.305C143.332 145.305 144.174 173.826 169.498 175.712C169.498 175.712 150.351 182.316 144.212 197.544C144.212 197.544 140.263 200.366 143.171 204.491C146.079 208.614 148.134 206.711 162.426 221.46C162.424 221.457 186.232 241.372 192.052 251.091Z" fill="#EDEEE9"/>
<path d="M170.267 175.462C170.267 175.462 142.003 178.271 143.332 145.303C143.332 145.303 166.007 148.933 170.267 175.462Z" fill="#D7D8D5"/>
<path d="M141.702 210.129C141.702 210.129 152.392 186.1 170.267 175.462C170.267 175.462 153.93 175.712 146.341 159.448L138.383 172.549C138.382 172.549 134.667 199.017 141.702 210.129Z" fill="#EDEEE9"/>
<path d="M193.827 304.356C193.827 304.356 189.605 300.227 174.544 286.79C173.249 285.635 177.68 288.38 181.975 289.977C181.975 289.977 172.458 271.127 171.185 263.457C171.185 263.457 177.904 280.684 184.446 287.355C184.446 287.355 183.046 282.025 183.287 278.401C183.288 278.4 190.521 298.974 193.827 304.356Z" fill="#D7D8D5"/>
<path d="M143.957 205.641C143.957 205.641 137.633 210.486 129.096 208.543C129.096 208.543 139.015 214.742 143.957 205.641Z" fill="#D7D8D5"/>
<path d="M143.954 205.627C143.954 205.627 142.535 210.875 139.833 214.017C139.833 214.017 145.934 211.675 143.954 205.627Z" fill="#D7D8D5"/>
<path d="M165.571 178.669C165.571 178.669 142.997 177.142 139.996 147.899L143.331 145.305C143.331 145.305 143.13 170.775 166.6 175.097L167.513 177.242L165.571 178.669Z" fill="white"/>
<path d="M314.305 454.581C314.249 423.615 313.872 276.637 311.951 270.782C309.802 264.237 292.664 257.987 292.664 257.987C294.532 270.451 289.051 347.027 289.051 347.027L283.613 451.818C288.626 454.143 299.995 458.056 314.305 454.581Z" fill="#EDEEE9"/>
<path d="M209.717 240.134L169.772 253.076C169.772 253.076 174.837 328.475 176.491 340.306L165.279 435.341L215.508 447.962L225.482 411.485L231.343 448.937L285.152 439.319L278.863 346.611L302.761 262.493L258.488 243.135L209.717 240.134Z" fill="#27BEC2"/>
<path d="M254.609 199.083L218.845 196.88L216.281 238.499L252.044 240.703L254.609 199.083Z" fill="#FED5B0"/>
<path opacity="0.5" d="M217.693 215.745C217.693 215.745 220.002 218.861 222.785 220.65C225.569 222.437 240.624 226.852 253.401 218.876L253.976 210.064L218.3 205.911L217.693 215.745Z" fill="#F9A77A"/>
<path d="M212.574 184.056C216.923 181.895 217.652 174.515 214.203 167.571C210.753 160.627 204.431 156.75 200.083 158.91C195.734 161.07 195.005 168.451 198.454 175.394C201.903 182.338 208.225 186.216 212.574 184.056Z" fill="#FBBD90"/>
<path d="M277.908 163.684C273.858 161.006 267.109 164.078 262.834 170.545C258.558 177.012 258.375 184.426 262.425 187.103C266.475 189.781 273.225 186.709 277.5 180.241C281.776 173.774 281.958 166.361 277.908 163.684Z" fill="#FBBD90"/>
<path d="M263.83 198.018C263.253 207.404 253.928 217.974 244.52 217.394L227.809 216.365C216.966 215.697 209.421 205.684 210.118 194.34L209.897 133.364C210.272 127.301 215.486 122.691 221.548 123.063L261.316 125.514C267.379 125.888 271.99 131.103 271.616 137.166L263.83 198.018Z" fill="#FED5B0"/>
<path d="M227.36 263.361L206.725 376.015C206.569 376.866 206.713 377.747 207.133 378.505L219.891 401.577C221.255 404.044 224.755 404.177 226.303 401.822L240.113 380.807C240.536 380.16 240.75 379.402 240.726 378.631L237.133 264.064C237.074 262.13 235.55 260.558 233.617 260.44L231.275 260.296C229.385 260.18 227.704 261.494 227.36 263.361Z" fill="#595352"/>
<path d="M236.194 263.482L228.712 263.021C227.547 262.949 226.569 262.119 226.31 260.983L223.572 248.954C223.18 247.245 224.544 245.641 226.294 245.748L241.352 246.676C243.159 246.786 244.314 248.643 243.615 250.312L238.779 261.873C238.348 262.906 237.31 263.552 236.194 263.482Z" fill="#595352"/>
<path d="M253.113 225.325L238.283 245.978L241.982 268.791L258.491 243.137L253.113 225.325Z" fill="#17AAAA"/>
<path d="M229.424 245.431L233.779 245.998L238.284 245.978L244.364 237.509L224.429 236.28L229.424 245.431Z" fill="#FED5B0"/>
<path d="M200.639 456.516L204.683 390.871C204.683 390.871 201.558 349.753 204.152 310.998C205.35 293.077 209.209 244.695 209.209 244.695L194.019 244.767L168.939 252.171L166.661 339.7L155.075 456.515H200.639V456.516Z" fill="#EDEEE9"/>
<path d="M209.717 240.134C209.717 240.134 199.455 326.587 204.683 390.872C204.683 390.872 181.529 346.885 181.193 313.696L198.393 300.265L184.301 296.713C184.301 296.713 186.679 265.611 194.017 244.767L209.717 240.134Z" fill="white"/>
<path d="M284.89 456.517L289.05 347.027L302.762 262.496L273.548 249.455L258.481 247.519C258.481 247.519 256.374 296.005 255.363 313.938C253.182 352.722 245.036 393.145 245.036 393.145L241.133 456.517H284.89V456.517Z" fill="#EDEEE9"/>
<path d="M258.536 242.929C258.536 242.929 258.114 329.988 245.036 393.145C245.036 393.145 273.411 352.33 277.818 319.434L262.395 303.996L276.819 302.198C276.819 302.198 278.274 271.043 273.55 249.455L258.536 242.929Z" fill="white"/>
<path d="M289.564 308.053L271.089 306.915L270.907 309.88L289.382 311.018L289.564 308.053Z" fill="#D7D8D5"/>
<path d="M192.06 299.584L192.057 299.589C192.057 299.589 192.052 299.566 192.039 299.535C191.916 299.209 191.796 298.886 191.671 298.549C191.113 297.169 189.872 294.469 187.456 290.796C187.456 290.796 187.796 288.698 190.425 288.631C190.425 288.631 193.328 293.461 195.224 298.15C195.224 298.15 200.753 312.98 205.6 317.873C205.6 317.873 206.005 317.469 206.747 317.683C207.486 317.898 209.032 320.715 208.032 321.235C207.031 321.758 205.799 321.826 204.858 321.204C203.937 320.592 198.929 317.901 192.06 299.584Z" fill="#B2BDBB"/>
<path d="M210.211 238.952L211.706 235.496C193.023 236.754 192.366 259.951 192.846 269.144C190.663 269.966 188.337 271.846 186.897 275.932C183.548 285.433 187.631 290.935 187.631 290.935C187.631 290.935 188.247 289.073 190.54 288.858C190.54 288.858 187.835 283.983 190.023 277.175C192.211 270.37 198.665 272.304 200.39 273.764C202.116 275.22 203.469 282.408 202.302 286.34C202.302 286.34 204.236 285.085 205.564 286.574C205.564 286.574 207.96 270.973 198.374 268.822C198.374 268.822 197.331 268.525 195.848 268.564C195.555 238.574 210.211 238.952 210.211 238.952Z" fill="#394F6D"/>
<path d="M198.073 318.628C198.073 318.628 197.9 317.354 196.379 317.067C194.856 316.78 192.508 316.28 191.777 317.885C191.046 319.491 191.016 322.074 193.085 322.606C195.155 323.137 196.977 323.74 197.379 322.713C197.379 322.713 198.447 319.772 198.073 318.628Z" fill="#595352"/>
<path d="M204.296 296.418C204.296 296.418 204.298 296.418 204.301 296.419C204.301 296.419 204.298 296.397 204.296 296.366C204.298 296.016 204.301 295.672 204.301 295.311C204.344 293.823 204.576 290.861 205.564 286.577C205.564 286.577 204.452 284.558 202.303 286.343C202.303 286.343 200.979 291.115 200.831 296.168C200.831 296.168 200.791 311.996 197.94 318.268C197.94 318.268 197.418 318.03 196.799 318.486C196.18 318.942 195.707 322.122 196.826 322.264C197.945 322.404 199.126 322.041 199.79 321.13C200.442 320.24 204.209 315.981 204.296 296.418Z" fill="#BFCAC8"/>
<path d="M205.6 318.257C205.6 318.257 205.32 317.002 206.65 316.204C207.976 315.408 210.006 314.123 211.247 315.377C212.492 316.628 213.414 319.039 211.658 320.257C209.903 321.474 208.401 322.672 207.668 321.846C207.668 321.846 205.646 319.46 205.6 318.257Z" fill="#595352"/>
<path d="M208.548 235.95C208.548 235.95 208.312 238.475 207.01 239.682C207.01 239.682 208.732 238.915 210.211 238.953L211.706 235.497C211.706 235.497 209.499 235.708 208.548 235.95Z" fill="#2D405A"/>
<path d="M257.598 288.99C253.127 288.714 249.283 292.052 249.012 296.445C248.741 300.839 252.147 304.623 256.618 304.899C261.09 305.174 264.934 301.836 265.205 297.443C265.475 293.05 262.07 289.265 257.598 288.99Z" fill="#6F7878"/>
<path d="M257.305 304.307C261.706 304.307 265.273 300.74 265.273 296.339C265.273 291.938 261.706 288.371 257.305 288.371C252.905 288.371 249.337 291.938 249.337 296.339C249.337 300.74 252.905 304.307 257.305 304.307Z" fill="#9AA4A3"/>
<path d="M256.967 238.076L258.058 241.756C258.058 241.756 265.146 243.262 264.321 261.738C263.491 280.212 257.238 290.756 257.238 290.756C257.238 290.756 259.7 290.994 261.357 293.49C261.357 293.49 268.653 273.393 268.221 257.558C267.982 248.761 265.89 240.319 256.967 238.076Z" fill="#394F6D"/>
<path d="M257.338 301.563C260.521 301.563 263.102 298.982 263.102 295.799C263.102 292.616 260.521 290.035 257.338 290.035C254.155 290.035 251.574 292.616 251.574 295.799C251.574 298.982 254.155 301.563 257.338 301.563Z" fill="#848D8D"/>
<path d="M256.589 290.946C256.589 290.946 258.487 287.847 258.695 287.007C258.695 287.007 262.215 286.447 263.371 289.075C263.371 289.075 262.203 292.959 261.632 294.048C261.632 294.048 260.753 291.357 256.589 290.946Z" fill="#BFCAC8"/>
<path d="M257.365 300.437C260.162 300.437 262.429 298.169 262.429 295.373C262.429 292.576 260.162 290.309 257.365 290.309C254.568 290.309 252.301 292.576 252.301 295.373C252.301 298.169 254.568 300.437 257.365 300.437Z" fill="#BFCAC8"/>
<path d="M257.793 298.222C259.732 298.222 261.304 296.65 261.304 294.71C261.304 292.771 259.732 291.199 257.793 291.199C255.853 291.199 254.281 292.771 254.281 294.71C254.281 296.65 255.853 298.222 257.793 298.222Z" fill="#E3F3F3"/>
<path d="M259.447 238.995C259.447 238.995 258.63 240.425 258.934 242.144C258.934 242.144 258.297 241.771 258.058 241.756L256.967 238.076C256.967 238.076 259.031 238.604 259.447 238.995Z" fill="#2D405A"/>
<path d="M171.198 296.269C171.198 296.269 170.609 303 170.763 310.298L168.339 309.855C168.339 309.855 169.122 302.189 171.198 296.269Z" fill="#D7D8D5"/>
<path opacity="0.4" d="M160.365 419.957L165.391 419.196L165.343 422.079C165.343 422.079 161.27 420.642 160.365 419.957Z" fill="#D3D4D1"/>
<path opacity="0.4" d="M289.353 427.9L284.458 426.53L284.152 429.394C284.15 429.394 288.369 428.47 289.353 427.9Z" fill="#D3D4D1"/>
<path d="M303.227 266.926C303.227 266.926 300.936 287.563 295.877 295.124C295.877 295.124 295.987 279.527 294.661 276.213C294.661 276.213 296.203 302.937 294.931 310.78C293.657 318.625 302.825 292.821 302.825 292.821L297.842 299.146C297.84 299.149 303.588 283.166 303.227 266.926Z" fill="#D7D8D5"/>
<path d="M294.691 312.253C294.691 312.253 289.239 342.996 289.051 347.027C288.858 351.059 284.947 425.679 284.947 425.679L287.641 426.725C287.641 426.725 289.957 366.079 289.838 362.678C289.717 359.277 294.691 312.253 294.691 312.253Z" fill="#D7D8D5"/>
<path d="M284.288 322.385C284.225 323.403 283.348 324.177 282.33 324.115C281.311 324.051 280.538 323.176 280.6 322.156L281.732 303.798C281.795 302.778 282.671 302.005 283.688 302.067C284.708 302.131 285.481 303.007 285.418 304.026L284.288 322.385Z" fill="#595352"/>
<path d="M282.174 305.604L281.307 305.55L281.359 304.636C281.376 304.404 281.199 304.204 280.965 304.189C280.733 304.174 280.532 304.352 280.517 304.585L280.088 311.562C280.073 311.794 280.25 311.993 280.484 312.008C280.716 312.023 280.915 311.846 280.93 311.614L281.183 307.531L282.052 307.584L282.174 305.604Z" fill="#848D8D"/>
<path opacity="0.5" d="M221.447 192.575L221.194 123.063C215.285 122.888 210.262 127.424 209.895 133.367L210.117 194.343C209.42 205.687 216.965 215.698 227.807 216.368L237.105 216.941C227.223 214.021 220.751 203.876 221.447 192.575Z" fill="#F9A77A"/>
<path d="M217.238 223.116L229.424 245.431L222.953 267.617L209.717 240.134L217.238 223.116Z" fill="#17AAAA"/>
<path d="M272.781 149.917C272.37 150.792 271.994 151.568 271.667 152.247L271.775 152.408C271.483 153.529 271.164 154.809 270.832 156.294C270.197 159.123 269.516 162.2 268.833 165.263L264.883 169.091C266.884 164.558 268.592 155.068 269.335 151.994L269.319 151.96C267.144 147.005 266.121 141.709 266.32 136.418L265.308 130.405C265.308 130.405 258.757 126.258 238.212 125.588C224.043 125.125 216.003 131.514 216.003 131.514C214.892 136.198 213.389 143.338 210.441 147.321L210.275 147.543L210.048 147.852C210.522 150.879 210.266 159.79 211.946 164.811L209.168 161.585C208.841 158.216 208.524 154.824 208.22 151.735C208.178 151.296 208.132 150.905 208.089 150.503L208.068 150.533C208.068 150.533 207.583 148.688 206.918 146.072C206.421 144.143 205.889 128.118 205.614 126.729C205.519 126.292 208.24 103.174 246.964 108.314C273.668 109.959 279.005 122.774 276.87 130.095C276.779 130.417 273.629 148.131 272.781 149.917Z" fill="#3D444D"/>
<path d="M237.818 124.535C237.818 124.535 237.636 124.813 237.283 125.262C237.216 125.362 237.057 125.531 237.039 125.61C237.008 125.689 236.973 125.773 236.936 125.864C236.9 125.954 236.848 126.03 236.792 126.122C236.731 126.259 236.665 126.403 236.585 126.543C236.275 127.106 235.962 127.828 235.674 128.634C235.396 129.449 235.101 130.346 234.815 131.299C234.573 132.258 234.368 133.257 234.195 134.268C234.038 135.27 233.957 136.291 234.006 137.19C234.014 137.652 234.033 138.092 234.102 138.469C234.154 138.859 234.205 139.215 234.275 139.499C234.409 140.105 234.486 140.453 234.486 140.453L234.491 140.474C234.524 140.627 234.43 140.775 234.277 140.808C234.228 140.82 234.178 140.817 234.132 140.802C234.132 140.802 233.785 140.691 233.175 140.408C232.847 140.283 232.508 140.073 232.129 139.801C231.733 139.537 231.284 139.219 230.878 138.798C230.424 138.397 230.021 137.903 229.608 137.347C229.171 136.798 228.848 136.157 228.468 135.481C228.177 134.791 227.834 134.055 227.674 133.276C227.433 132.499 227.387 131.692 227.276 130.874C227.272 130.062 227.209 129.229 227.332 128.423C227.399 127.61 227.622 126.832 227.822 126.074C228.087 125.335 228.335 124.61 228.675 123.961C229.01 123.305 229.336 122.697 229.735 122.175C229.925 121.912 230.109 121.662 230.282 121.423C230.504 121.167 230.719 120.92 230.931 120.702C231.144 120.486 231.341 120.284 231.525 120.098C231.718 119.908 231.808 119.879 231.936 119.775C232.396 119.432 232.677 119.257 232.677 119.257C234.443 118.156 236.767 118.695 237.869 120.461C238.675 121.752 238.599 123.343 237.818 124.535Z" fill="#3D444D"/>
<path d="M262.788 155.507C262.003 156.117 259.89 154.735 257.121 153.988C254.373 153.146 251.851 153.189 251.513 152.253C251.373 151.806 251.938 151.134 253.152 150.675C254.35 150.214 256.199 150.06 258.095 150.605C259.994 151.154 261.472 152.268 262.239 153.298C263.023 154.332 263.144 155.202 262.788 155.507Z" fill="#263238"/>
<path d="M231.364 150.035C231.017 150.967 228.492 150.898 225.74 151.713C222.959 152.434 220.835 153.796 220.054 153.176C219.702 152.868 219.832 152.002 220.624 150.973C221.403 149.953 222.896 148.854 224.797 148.324C226.701 147.795 228.545 147.971 229.738 148.442C230.948 148.91 231.507 149.588 231.364 150.035Z" fill="#263238"/>
<path d="M242.269 178.182C242.269 178.182 238.31 183.376 233.893 177.571C233.894 177.569 238.502 180.737 242.269 178.182Z" fill="#F8A486"/>
<path d="M226.681 168.894C226.612 169.966 225.691 170.781 224.619 170.715C223.548 170.648 222.733 169.728 222.797 168.656L223.113 163.562C223.179 162.49 224.101 161.673 225.171 161.741C226.244 161.806 227.061 162.728 226.994 163.8L226.681 168.894Z" fill="#263238"/>
<path d="M256.885 170.754C256.821 171.827 255.898 172.643 254.826 172.576C253.753 172.51 252.937 171.587 253.004 170.517L253.318 165.42C253.382 164.349 254.305 163.534 255.376 163.6C256.45 163.665 257.265 164.588 257.198 165.661L256.885 170.754Z" fill="#263238"/>
<path d="M243.448 192.777C243.282 195.456 240.609 197.635 236.858 197.405C233.104 197.173 230.707 194.526 230.87 191.846C231.033 189.166 233.64 188.635 237.391 188.864C241.143 189.094 243.612 190.096 243.448 192.777Z" fill="#3D444D"/>
<path d="M236.269 198.932C234.048 198.68 232.14 197.654 230.936 196.244C231.893 197.927 233.879 199.216 236.28 199.488C238.883 199.783 241.243 198.799 242.44 197.137C240.983 198.478 238.72 199.21 236.269 198.932Z" fill="#F8A486"/>
<path d="M440.075 386.868H-0.77771V457.713H440.075V386.868Z" fill="#737B7D"/>
<path opacity="0.2" d="M439.572 386.868H-0.699951V410.59H439.572V386.868Z" fill="#5C2C5B"/>
<path d="M440.247 367.676H-0.158569V386.868H440.247V367.676Z" fill="#E5E7EB"/>
<path d="M316.413 332.779H143.507C139.649 332.779 136.521 329.653 136.521 325.795V222.124C136.521 218.266 139.649 215.137 143.507 215.137H316.413C320.27 215.137 323.4 218.266 323.4 222.124V325.795C323.4 329.653 320.27 332.779 316.413 332.779Z" fill="#737B7D"/>
<path d="M269.76 261.877H190.16V308.954H269.76V261.877Z" fill="#374151"/>
<path d="M250.384 298.223H209.535V370.148H250.384V298.223Z" fill="#485260"/>
<path d="M267.005 371.457H192.915C189.057 371.457 185.928 368.331 185.928 364.471V361.664C185.928 357.805 189.057 354.677 192.915 354.677H267.005C270.864 354.677 273.994 357.805 273.994 361.664V364.471C273.994 368.331 270.864 371.457 267.005 371.457Z" fill="#374151"/>
<path d="M202.624 130.237C202.624 130.237 208.027 130.174 210.839 129.395C213.649 128.613 214.869 125.145 214.869 125.145L201.736 125.118L202.624 130.237Z" fill="#F8A486"/>
<path d="M194.043 146.995C192.318 147.527 188.204 148.474 188.204 148.474L190.687 140.534L202.406 127.723C202.406 127.723 213.73 128.218 217.186 126.431C220.642 124.648 220.819 121.434 220.819 121.434C220.819 121.434 204.948 121.974 194.445 120.696C192.664 120.479 190.732 122.051 187.844 123.531C186.142 122.935 183.514 122.35 181.253 124.735C177.728 124.565 176.301 126.832 173.181 130.312C170.995 132.745 162.542 141.934 159.15 145.294C155.622 148.792 152.12 150.777 145.634 157.079C145.634 157.079 146.652 160.709 149.773 164.974C152.894 169.239 155.886 170.763 155.886 170.763C160.445 165.239 168.375 158.332 169.036 157.737C170.383 156.521 176.759 158.86 181.579 157.305C186.402 155.751 203.977 149.435 206.068 149.612C206.553 148.155 206.583 145.706 202.451 145.091C200.515 144.804 196.869 146.126 194.043 146.995Z" fill="#FED5B0"/>
<path d="M193.057 130.155C191.517 129.099 189.978 128.048 188.391 127.079L186.869 132.667C186.869 132.667 191.569 139.559 193.54 142.068C196.05 145.26 199.765 143.654 199.765 143.654C199.765 143.654 197.165 138.184 196.539 137.193C196.157 136.592 194.043 132.283 193.057 130.155Z" fill="#FED5B0"/>
<path d="M206.031 132.675C204.997 129.789 202.946 124.295 200.213 123.889C198.966 123.705 192.003 125.096 189.173 125.68C191.487 127.116 193.706 128.706 195.988 130.233L198.125 130.311C198.125 130.311 200.731 135.757 203.474 139.315C206.5 143.245 209.895 141.312 209.895 141.312C209.895 141.312 207.066 135.56 206.031 132.675Z" fill="#FED5B0"/>
<path d="M191.674 139.643L186.869 132.669C186.869 132.669 182.624 133.158 181.073 137.803C180.691 138.959 177.925 147.149 176.226 149.319C174.195 151.912 169.682 152.732 169.682 152.732C169.682 152.732 175.202 153.138 177.496 150.434C179.79 147.732 184.562 138.955 184.562 138.955L190.187 142.136L191.674 139.643Z" fill="#F8A486"/>
<path d="M195.495 135.277L192.478 129.567L198.769 131.7L195.495 135.277Z" fill="#F8A486"/>
<path d="M199.779 143.639C198.595 144.243 197.723 144.028 196.748 142.816C195.783 141.618 195.007 140.072 195.007 140.072C195.007 140.072 196.16 139.083 197.403 138.724C198.097 140.359 199.563 143.066 199.779 143.639Z" fill="#FFD6BB"/>
<path d="M209.921 141.282C208.735 141.889 207.863 141.674 206.886 140.459C205.925 139.264 205.148 137.716 205.148 137.716C205.148 137.716 206.3 136.726 207.543 136.369C208.237 138.004 209.702 140.71 209.921 141.282Z" fill="#FFD6BB"/>
<path d="M204.229 128.259C204.229 128.259 203.26 126.349 201.737 125.118C200.213 123.889 196.151 123.222 196.151 123.222C196.151 123.222 199.214 122.253 201.238 123.478C204.045 125.178 204.229 128.259 204.229 128.259Z" fill="#F8A486"/>
<path d="M160.565 149C160.565 149 163.398 151.914 164.38 152.533C165.36 153.147 165.741 154.191 165.741 154.191C165.741 154.191 164.561 153.876 163.544 153.11C161.006 151.205 160.565 149 160.565 149Z" fill="#F8A486"/>
<path d="M220.817 121.433C220.781 122.762 220.173 123.423 218.641 123.699C217.128 123.971 215.006 123.969 215.006 123.969C215.006 123.969 214.724 122.801 215.006 121.541C217.144 121.319 220.212 121.349 220.817 121.433Z" fill="#FFD6BB"/>
<path d="M265.066 32.4097C262.918 28.7307 260.006 25.8189 256.327 23.6698C252.648 21.5237 248.631 20.4514 244.276 20.4514C239.918 20.4514 235.901 21.5252 232.222 23.6698C228.545 25.8189 225.632 28.7307 223.484 32.4097C221.335 36.0872 220.264 40.1057 220.264 44.4622C220.264 48.8172 221.336 52.8357 223.484 56.5133C225.632 60.1923 228.543 63.1056 232.222 65.2517C235.901 67.4008 239.918 68.4731 244.275 68.4731C248.631 68.4731 252.65 67.3993 256.327 65.2517C260.006 63.1056 262.918 60.1923 265.066 56.5133C267.212 52.8357 268.284 48.8172 268.284 44.4622C268.286 40.1042 267.212 36.0872 265.066 32.4097Z" fill="#5850EC"/>
<path d="M248.278 59.4684C248.278 59.7586 248.184 59.9993 247.997 60.1863C247.812 60.3732 247.573 60.4674 247.281 60.4674H241.278C240.986 60.4674 240.747 60.3732 240.559 60.1863C240.37 59.9993 240.277 59.7586 240.277 59.4684V53.4639C240.277 53.1737 240.372 52.9329 240.559 52.746C240.747 52.5606 240.986 52.4648 241.278 52.4648H247.281C247.573 52.4648 247.812 52.5591 247.997 52.746C248.186 52.9329 248.278 53.1737 248.278 53.4639V59.4684Z" fill="white"/>
<path d="M255.891 40.9911C255.63 41.7628 255.339 42.3925 255.016 42.883C254.693 43.372 254.231 43.873 253.623 44.383C253.021 44.8945 252.541 45.2594 252.186 45.4777C251.833 45.6961 251.319 45.9952 250.656 46.3691C249.967 46.7654 249.4 47.2799 248.953 47.917C248.503 48.5511 248.278 49.0685 248.278 49.4619C248.278 49.755 248.184 49.9943 247.997 50.1812C247.81 50.3682 247.571 50.4624 247.279 50.4624H241.276C240.985 50.4624 240.745 50.3682 240.558 50.1812C240.369 49.9943 240.276 49.755 240.276 49.4619V48.3372C240.276 46.9419 240.823 45.6318 241.918 44.4129C243.013 43.1941 244.217 42.2923 245.531 41.709C246.53 41.2499 247.241 40.7803 247.655 40.3032C248.072 39.8231 248.283 39.186 248.283 38.3964C248.283 37.7084 247.89 37.0923 247.109 36.5524C246.328 36.0095 245.437 35.7388 244.436 35.7388C243.352 35.7388 242.456 35.9886 241.747 36.4896C241.059 36.9906 240.162 37.9492 239.058 39.3655C238.87 39.6167 238.608 39.7409 238.278 39.7409C238.027 39.7409 237.829 39.6781 237.684 39.5539L233.556 36.4283C233.078 36.0529 232.994 35.6147 233.305 35.1152C235.975 30.6749 239.841 28.4556 244.905 28.4556C246.719 28.4556 248.489 28.8818 250.221 29.7372C251.95 30.5912 253.395 31.7996 254.552 33.3624C255.707 34.9267 256.286 36.6272 256.286 38.4592C256.281 39.376 256.149 40.2194 255.891 40.9911Z" fill="white"/>
<path d="M173.09 100.207C170.943 96.5278 168.031 93.616 164.352 91.4669C160.673 89.3208 156.656 88.2485 152.301 88.2485C147.943 88.2485 143.926 89.3223 140.247 91.4669C136.569 93.616 133.656 96.5278 131.508 100.207C129.359 103.884 128.289 107.903 128.289 112.259C128.289 116.614 129.361 120.633 131.508 124.31C133.656 127.989 136.568 130.903 140.247 133.049C143.926 135.198 147.943 136.27 152.299 136.27C156.656 136.27 160.674 135.196 164.352 133.049C168.031 130.903 170.943 127.989 173.09 124.31C175.236 120.633 176.309 116.614 176.309 112.259C176.31 107.901 175.236 103.884 173.09 100.207Z" fill="#5850EC"/>
<path d="M156.303 127.266C156.303 127.556 156.209 127.796 156.022 127.983C155.836 128.17 155.597 128.265 155.305 128.265H149.302C149.011 128.265 148.771 128.17 148.583 127.983C148.395 127.796 148.302 127.556 148.302 127.266V121.261C148.302 120.971 148.396 120.73 148.583 120.543C148.771 120.358 149.011 120.262 149.302 120.262H155.305C155.597 120.262 155.836 120.356 156.022 120.543C156.21 120.73 156.303 120.971 156.303 121.261V127.266Z" fill="white"/>
<path d="M163.915 108.788C163.655 109.56 163.363 110.19 163.04 110.68C162.717 111.169 162.255 111.67 161.648 112.18C161.045 112.692 160.565 113.057 160.211 113.275C159.858 113.493 159.343 113.792 158.681 114.166C157.991 114.563 157.425 115.077 156.977 115.714C156.527 116.348 156.303 116.866 156.303 117.259C156.303 117.552 156.209 117.791 156.022 117.978C155.835 118.165 155.596 118.259 155.304 118.259H149.301C149.009 118.259 148.77 118.165 148.583 117.978C148.393 117.791 148.3 117.552 148.3 117.259V116.134C148.3 114.739 148.848 113.429 149.942 112.21C151.037 110.991 152.241 110.089 153.556 109.506C154.555 109.047 155.265 108.577 155.679 108.1C156.097 107.62 156.307 106.983 156.307 106.194C156.307 105.506 155.914 104.889 155.133 104.35C154.353 103.807 153.461 103.536 152.461 103.536C151.377 103.536 150.481 103.786 149.772 104.287C149.084 104.788 148.187 105.746 147.083 107.163C146.895 107.414 146.633 107.538 146.302 107.538C146.051 107.538 145.854 107.475 145.709 107.351L141.581 104.225C141.102 103.85 141.019 103.412 141.33 102.912C143.999 98.4721 147.865 96.2527 152.929 96.2527C154.743 96.2527 156.514 96.6789 158.246 97.5344C159.975 98.3883 161.419 99.5967 162.577 101.16C163.731 102.724 164.31 104.424 164.31 106.256C164.306 107.173 164.174 108.017 163.915 108.788Z" fill="white"/>
<path d="M346.822 102.95C344.675 99.2705 341.763 96.3587 338.084 94.2096C334.405 92.0635 330.388 90.9912 326.033 90.9912C321.675 90.9912 317.658 92.065 313.979 94.2096C310.301 96.3587 307.388 99.2705 305.24 102.95C303.091 106.627 302.021 110.646 302.021 115.002C302.021 119.357 303.093 123.376 305.24 127.053C307.388 130.732 310.3 133.645 313.979 135.791C317.658 137.941 321.675 139.013 326.031 139.013C330.388 139.013 334.406 137.939 338.084 135.791C341.763 133.645 344.675 130.732 346.822 127.053C348.968 123.376 350.041 119.357 350.041 115.002C350.042 110.644 348.968 106.627 346.822 102.95Z" fill="#5850EC"/>
<path d="M330.035 130.008C330.035 130.298 329.941 130.539 329.754 130.726C329.568 130.913 329.329 131.007 329.037 131.007H323.034C322.743 131.007 322.503 130.913 322.315 130.726C322.127 130.539 322.034 130.298 322.034 130.008V124.004C322.034 123.714 322.128 123.473 322.315 123.286C322.503 123.1 322.743 123.005 323.034 123.005H329.037C329.329 123.005 329.568 123.099 329.754 123.286C329.942 123.473 330.035 123.714 330.035 124.004V130.008Z" fill="white"/>
<path d="M337.647 111.531C337.387 112.303 337.095 112.932 336.772 113.423C336.449 113.912 335.987 114.413 335.38 114.923C334.777 115.434 334.297 115.799 333.943 116.018C333.59 116.236 333.075 116.535 332.413 116.909C331.723 117.305 331.157 117.82 330.709 118.457C330.259 119.091 330.035 119.608 330.035 120.002C330.035 120.295 329.941 120.534 329.754 120.721C329.567 120.908 329.328 121.002 329.036 121.002H323.033C322.741 121.002 322.502 120.908 322.315 120.721C322.125 120.534 322.032 120.295 322.032 120.002V118.877C322.032 117.482 322.58 116.172 323.674 114.953C324.769 113.734 325.973 112.832 327.288 112.249C328.287 111.79 328.997 111.32 329.411 110.843C329.829 110.363 330.039 109.726 330.039 108.936C330.039 108.248 329.646 107.632 328.865 107.092C328.085 106.549 327.193 106.279 326.193 106.279C325.109 106.279 324.213 106.528 323.504 107.029C322.816 107.53 321.919 108.489 320.815 109.905C320.627 110.157 320.365 110.281 320.034 110.281C319.783 110.281 319.586 110.218 319.441 110.094L315.313 106.968C314.834 106.593 314.751 106.154 315.062 105.655C317.731 101.215 321.597 98.9954 326.661 98.9954C328.475 98.9954 330.246 99.4216 331.978 100.277C333.706 101.131 335.151 102.339 336.309 103.902C337.463 105.467 338.042 107.167 338.042 108.999C338.038 109.916 337.906 110.759 337.647 111.531Z" fill="white"/>
<path d="M209.016 52.897C206.867 49.2195 203.955 46.3062 200.278 44.1601C196.599 42.011 192.582 40.9387 188.225 40.9387C183.869 40.9387 179.852 42.0125 176.173 44.1601C172.495 46.3062 169.583 49.218 167.434 52.897C165.287 56.576 164.214 60.593 164.214 64.951C164.214 69.3045 165.288 73.323 167.434 77.0036C169.583 80.6811 172.492 83.5914 176.173 85.742C179.852 87.8881 183.867 88.9604 188.225 88.9604C192.58 88.9604 196.599 87.8866 200.276 85.742C203.955 83.5929 206.867 80.6811 209.016 77.0036C211.162 73.323 212.236 69.306 212.236 64.951C212.236 60.5945 211.161 56.576 209.016 52.897Z" fill="#5850EC"/>
<path d="M200.995 52.9717C197.275 49.2523 191.222 49.2523 187.501 52.9717C184.959 55.5126 184.077 59.2589 185.176 62.6568L174.429 73.4037C174.266 73.5682 174.175 73.788 174.175 74.0183V78.9252C174.175 79.4053 174.563 79.7941 175.042 79.7941H179.95C180.179 79.7941 180.399 79.7014 180.562 79.5384L181.788 78.312C181.975 78.1251 182.069 77.8619 182.037 77.5972L181.884 76.2781L183.71 76.1076C184.124 76.0702 184.453 75.7412 184.492 75.3254L184.664 73.4994L185.983 73.6519C186.227 73.6848 186.474 73.6056 186.661 73.4396C186.843 73.2736 186.949 73.0388 186.949 72.7905V71.1753H188.536C188.765 71.1753 188.986 71.0826 189.148 70.9211L191.373 68.7256C194.77 69.8264 198.45 69.0098 200.993 66.4674C204.718 62.7465 204.718 56.6926 200.995 52.9717ZM198.543 59.1049C197.529 60.1203 195.876 60.1203 194.862 59.1049C193.848 58.0894 193.848 56.4398 194.862 55.4244C195.876 54.4089 197.529 54.4089 198.543 55.4244C199.558 56.4398 199.557 58.0909 198.543 59.1049Z" fill="white"/>
<path d="M322.428 52.897C320.279 49.2195 317.368 46.3062 313.69 44.1601C310.011 42.011 305.994 40.9387 301.638 40.9387C297.281 40.9387 293.264 42.0125 289.585 44.1601C285.907 46.3062 282.996 49.218 280.847 52.897C278.699 56.576 277.627 60.593 277.627 64.951C277.627 69.3045 278.701 73.323 280.847 77.0036C282.996 80.6811 285.904 83.5914 289.585 85.742C293.264 87.8881 297.28 88.9604 301.638 88.9604C305.993 88.9604 310.011 87.8866 313.689 85.742C317.368 83.5929 320.279 80.6811 322.428 77.0036C324.575 73.323 325.648 69.306 325.648 64.951C325.648 60.5945 324.573 56.576 322.428 52.897Z" fill="#5850EC"/>
<path d="M314.408 52.9717C310.687 49.2523 304.635 49.2523 300.914 52.9717C298.371 55.5126 297.489 59.2589 298.588 62.6568L287.841 73.4037C287.678 73.5682 287.587 73.788 287.587 74.0183V78.9252C287.587 79.4053 287.976 79.7941 288.454 79.7941H293.363C293.591 79.7941 293.811 79.7014 293.974 79.5384L295.201 78.312C295.388 78.1251 295.482 77.8619 295.449 77.5972L295.296 76.2781L297.122 76.1076C297.537 76.0702 297.866 75.7412 297.905 75.3254L298.077 73.4994L299.396 73.6519C299.639 73.6848 299.886 73.6056 300.073 73.4396C300.256 73.2736 300.362 73.0388 300.362 72.7905V71.1753H301.949C302.177 71.1753 302.399 71.0826 302.56 70.9211L304.786 68.7256C308.182 69.8264 311.862 69.0098 314.405 66.4674C318.13 62.7465 318.13 56.6926 314.408 52.9717ZM311.955 59.1049C310.941 60.1203 309.289 60.1203 308.275 59.1049C307.261 58.0894 307.261 56.4398 308.275 55.4244C309.289 54.4089 310.941 54.4089 311.955 55.4244C312.971 56.4398 312.969 58.0909 311.955 59.1049Z" fill="white"/>
</g>
<defs>
<clipPath id="clip0">
<path d="M0 8C0 3.58172 3.58172 0 8 0H432C436.418 0 440 3.58172 440 8V448.517C440 452.935 436.418 456.517 432 456.517H7.99999C3.58171 456.517 0 452.935 0 448.517V8Z" fill="white"/>
</clipPath>
</defs>
</svg>
