<svg width="468" height="464" viewBox="0 0 468 464" fill="none" xmlns="http://www.w3.org/2000/svg">
<mask id="mask0" mask-type="alpha" maskUnits="userSpaceOnUse" x="0" y="0" width="468" height="464">
<rect width="468" height="464" fill="white"/>
</mask>
<g mask="url(#mask0)">
<rect opacity="0.02" width="468" height="464" fill="#5850EC"/>
<g opacity="0.06">
<path d="M0 0L468 464" stroke="#5850EC"/>
<path d="M18.2812 -18.125L486.281 445.875" stroke="#5850EC"/>
<path d="M36.5625 -36.25L504.562 427.75" stroke="#5850EC"/>
<path d="M54.8438 -54.375L522.844 409.625" stroke="#5850EC"/>
<path d="M73.125 -72.5L541.125 391.5" stroke="#5850EC"/>
<path d="M91.4062 -90.625L559.406 373.375" stroke="#5850EC"/>
<path d="M109.688 -108.75L577.688 355.25" stroke="#5850EC"/>
<path d="M127.969 -126.875L595.969 337.125" stroke="#5850EC"/>
<path d="M146.25 -145L614.25 319" stroke="#5850EC"/>
<path d="M164.531 -163.125L632.531 300.875" stroke="#5850EC"/>
<path d="M182.812 -181.25L650.812 282.75" stroke="#5850EC"/>
<path d="M201.094 -199.375L669.094 264.625" stroke="#5850EC"/>
<path d="M219.375 -217.5L687.375 246.5" stroke="#5850EC"/>
<path d="M-18.2812 18.125L449.719 482.125" stroke="#5850EC"/>
<path d="M-36.5625 36.25L431.438 500.25" stroke="#5850EC"/>
<path d="M-54.8438 54.375L413.156 518.375" stroke="#5850EC"/>
<path d="M-73.125 72.5L394.875 536.5" stroke="#5850EC"/>
<path d="M-91.4062 90.625L376.594 554.625" stroke="#5850EC"/>
<path d="M-109.688 108.75L358.312 572.75" stroke="#5850EC"/>
<path d="M-127.969 126.875L340.031 590.875" stroke="#5850EC"/>
<path d="M-146.25 145L321.75 609" stroke="#5850EC"/>
<path d="M-164.531 163.125L303.469 627.125" stroke="#5850EC"/>
<path d="M-182.812 181.25L285.188 645.25" stroke="#5850EC"/>
<path d="M-201.094 199.375L266.906 663.375" stroke="#5850EC"/>
<path d="M-219.375 217.5L248.625 681.5" stroke="#5850EC"/>
<path d="M-237.656 235.625L230.344 699.625" stroke="#5850EC"/>
</g>
<g opacity="0.06">
<path d="M9.14062 -9.0625L477.141 454.938" stroke="#5850EC"/>
<path d="M27.4219 -27.1875L495.422 436.812" stroke="#5850EC"/>
<path d="M45.7031 -45.3125L513.703 418.688" stroke="#5850EC"/>
<path d="M63.9844 -63.4375L531.984 400.562" stroke="#5850EC"/>
<path d="M82.2656 -81.5625L550.266 382.438" stroke="#5850EC"/>
<path d="M100.547 -99.6875L568.547 364.312" stroke="#5850EC"/>
<path d="M118.828 -117.812L586.828 346.188" stroke="#5850EC"/>
<path d="M137.109 -135.938L605.109 328.062" stroke="#5850EC"/>
<path d="M155.391 -154.062L623.391 309.938" stroke="#5850EC"/>
<path d="M173.672 -172.188L641.672 291.812" stroke="#5850EC"/>
<path d="M191.953 -190.312L659.953 273.688" stroke="#5850EC"/>
<path d="M210.234 -208.438L678.234 255.562" stroke="#5850EC"/>
<path d="M228.516 -226.562L696.516 237.438" stroke="#5850EC"/>
<path d="M-9.14062 9.0625L458.859 473.062" stroke="#5850EC"/>
<path d="M-27.4219 27.1875L440.578 491.188" stroke="#5850EC"/>
<path d="M-45.7031 45.3125L422.297 509.312" stroke="#5850EC"/>
<path d="M-63.9844 63.4375L404.016 527.438" stroke="#5850EC"/>
<path d="M-82.2656 81.5625L385.734 545.562" stroke="#5850EC"/>
<path d="M-100.547 99.6875L367.453 563.688" stroke="#5850EC"/>
<path d="M-118.828 117.812L349.172 581.812" stroke="#5850EC"/>
<path d="M-137.109 135.938L330.891 599.938" stroke="#5850EC"/>
<path d="M-155.391 154.062L312.609 618.062" stroke="#5850EC"/>
<path d="M-173.672 172.188L294.328 636.188" stroke="#5850EC"/>
<path d="M-191.953 190.312L276.047 654.312" stroke="#5850EC"/>
<path d="M-210.234 208.438L257.766 672.438" stroke="#5850EC"/>
<path d="M-228.516 226.562L239.484 690.562" stroke="#5850EC"/>
</g>
</g>
<g opacity="0.5">
<path d="M245.667 217H222.333C220.492 217 219 218.492 219 220.333V243.667C219 245.508 220.492 247 222.333 247H245.667C247.508 247 249 245.508 249 243.667V220.333C249 218.492 247.508 217 245.667 217Z" stroke="#5850EC" stroke-width="1.5" stroke-linecap="round" stroke-linejoin="round"/>
<path d="M228.167 228.667C229.547 228.667 230.667 227.547 230.667 226.167C230.667 224.786 229.547 223.667 228.167 223.667C226.786 223.667 225.667 224.786 225.667 226.167C225.667 227.547 226.786 228.667 228.167 228.667Z" stroke="#5850EC" stroke-width="1.5" stroke-linecap="round" stroke-linejoin="round"/>
<path d="M249 237L240.667 228.667L222.333 247" stroke="#5850EC" stroke-width="1.5" stroke-linecap="round" stroke-linejoin="round"/>
</g>
<path d="M0 0V-1H-1V0H0ZM468 0H469V-1H468V0ZM468 464V465H469V464H468ZM0 464H-1V465H0V464ZM0 1H468V-1H0V1ZM467 0V464H469V0H467ZM468 463H0V465H468V463ZM1 464V0H-1V464H1Z" fill="#5850EC"/>
</svg>
