<svg width="440" height="457" viewBox="0 0 440 457" fill="none" xmlns="http://www.w3.org/2000/svg">
<g clip-path="url(#clip0)">
<path d="M440.063 -0.109375H0.122681V389.37H440.063V-0.109375Z" fill="#F0F5FF"/>
<path d="M350.782 437.508H85.0557L78.1672 15.0791H357.668L350.782 437.508Z" fill="#CDDBFE"/>
<path d="M159.964 12.6836L159.149 439.414H157.119L156.306 12.6836H159.964Z" fill="#737B7D"/>
<path d="M279.613 12.6836L278.798 439.414H276.768L275.953 12.6836H279.613Z" fill="#737B7D"/>
<path d="M360.684 296.87H75.1521V298.91H360.684V296.87Z" fill="#737B7D"/>
<path d="M379.323 18.5366H55.5023L61.317 23.593L372.233 24.945L379.323 18.5366Z" fill="#737B7D"/>
<path d="M379.323 29.3926H55.5023L61.317 34.4505L372.233 35.798L379.323 29.3926Z" fill="#737B7D"/>
<path d="M379.323 40.2505H55.5023L61.317 45.3084L372.233 46.6529L379.323 40.2505Z" fill="#737B7D"/>
<path d="M379.323 51.1079H55.5023L61.317 56.1628L372.233 57.5133L379.323 51.1079Z" fill="#737B7D"/>
<path d="M379.323 61.9653H55.5023L61.317 67.0187L372.233 68.3707L379.323 61.9653Z" fill="#737B7D"/>
<path d="M379.323 72.8203H55.5023L61.317 77.8767L372.233 79.2257L379.323 72.8203Z" fill="#737B7D"/>
<path d="M379.323 83.6763H55.5023L61.317 88.7342L372.233 90.0832L379.323 83.6763Z" fill="#737B7D"/>
<path d="M379.323 94.5337H55.5023L61.317 99.5916L372.233 100.936L379.323 94.5337Z" fill="#737B7D"/>
<path d="M379.323 105.391H55.5023L61.317 110.449L372.233 111.793L379.323 105.391Z" fill="#737B7D"/>
<path d="M379.323 116.248H55.5023L61.317 121.304L372.233 122.656L379.323 116.248Z" fill="#737B7D"/>
<path d="M379.323 127.105H55.5023L61.317 132.16L372.233 133.51L379.323 127.105Z" fill="#737B7D"/>
<path d="M379.323 137.961H55.5023L61.317 143.017L372.233 144.365L379.323 137.961Z" fill="#737B7D"/>
<path d="M379.323 148.817H55.5023L61.317 153.875L372.233 155.221L379.323 148.817Z" fill="#737B7D"/>
<path d="M379.323 159.675H55.5023L61.317 164.731L372.233 166.077L379.323 159.675Z" fill="#737B7D"/>
<path d="M379.323 170.531H55.5023L61.317 175.589L372.233 176.935L379.323 170.531Z" fill="#737B7D"/>
<path d="M379.323 181.389H55.5023L61.317 186.444L372.233 187.791L379.323 181.389Z" fill="#737B7D"/>
<path d="M350.782 437.508H85.0556L78.1672 15.0792H357.669L350.782 437.508ZM70.1825 10.6001L77.4628 441.422H358.371L365.651 10.6001H70.1825Z" fill="#737B7D"/>
<path d="M88.3414 320.213L90.99 321.06L101.761 287.347C101.761 287.347 101.747 286.776 100.621 286.378C99.721 286.061 99.1078 286.499 99.1078 286.499L88.3414 320.213Z" fill="#E5E7EB"/>
<path d="M98.5081 313.398C98.5081 313.398 94.4985 310.992 85.3369 312.937C76.1797 314.885 73.4309 315.915 73.4309 315.915C73.4309 315.915 69.7654 331.142 72.7445 341.56C75.7206 351.983 78.2421 357.246 78.2421 357.246H93.1241C93.1241 357.246 90.9481 345.956 93.2378 334.712C95.526 323.473 98.5081 313.398 98.5081 313.398Z" fill="#27BEC2"/>
<path d="M98.2748 313.305C98.1821 313.255 98.0624 313.193 97.9278 313.129C96.5355 312.562 92.5349 311.409 85.3384 312.938C83.813 313.262 82.4774 313.558 81.29 313.833C76.9724 315.006 74.5406 315.824 73.3532 316.256C73.2036 316.92 72.8656 318.525 72.5187 320.704C74.8442 320.064 78.6279 319.108 84.5144 317.844C90.4666 316.567 94.6376 316.928 97.364 317.412C97.367 317.414 97.3775 317.403 97.3775 317.403C97.9517 315.311 98.3585 313.907 98.4737 313.512C98.4378 313.434 98.3765 313.364 98.2748 313.305Z" fill="#0EA5A5"/>
<path d="M81.1105 340.743C78.5816 331.896 79.9619 320.224 81.0477 313.887C75.2959 315.218 73.4309 315.915 73.4309 315.915C73.4309 315.915 69.7654 331.143 72.7445 341.561C75.7206 351.983 78.2421 357.246 78.2421 357.246H86.6784C85.455 354.235 83.3912 348.724 81.1105 340.743Z" fill="#0EA5A5"/>
<path d="M85.1334 316.816C91.0841 315.752 95.2567 316.051 97.983 316.454C98.0638 316.469 98.2612 316.34 98.2822 316.271C98.668 314.871 99.0045 313.757 99.1167 313.367C99.1556 313.24 99.0808 313.119 98.8923 313.033C97.8156 312.529 93.5787 310.97 85.4475 312.697C77.1727 314.454 73.9169 315.495 73.1931 315.74C73.0809 315.779 73.0121 315.881 72.9777 316.032C72.873 316.493 72.6277 317.61 72.3481 319.186C72.3346 319.256 72.4423 319.361 72.5126 319.343C74.7574 318.817 78.7011 317.964 85.1334 316.816Z" fill="#E5E7EB"/>
<path d="M440.211 373.858H-0.330444V457.089H440.211V373.858Z" fill="#737B7D"/>
<path opacity="0.2" d="M440.133 373.858H0.109253V394.338H440.133V373.858Z" fill="#5C2C5B"/>
<path d="M440.55 357.291H-0.330444V373.858H440.55V357.291Z" fill="#E5E7EB"/>
<path d="M319.44 318.221H125.2C120.866 318.221 117.352 314.708 117.352 310.374V193.91C117.352 189.577 120.866 186.061 125.2 186.061H319.44C323.771 186.061 327.286 189.577 327.286 193.91V310.374C327.286 314.71 323.771 318.221 319.44 318.221Z" fill="#737B7D"/>
<path d="M245.266 318.215H199.374V351.065H245.266V318.215Z" fill="#485260"/>
<path d="M263.935 361.673H180.701C176.367 361.673 172.854 358.16 172.854 353.823V350.672C172.854 346.339 176.367 342.825 180.701 342.825H263.935C268.268 342.825 271.785 346.339 271.785 350.672V353.823C271.785 358.16 268.269 361.673 263.935 361.673Z" fill="#374151"/>
<path d="M313.534 298.961H133.453C129.567 298.961 126.421 295.727 126.421 291.742V199.026C126.421 195.039 129.567 191.807 133.453 191.807H313.534C317.417 191.807 320.566 195.039 320.566 199.026V291.742C320.568 295.727 317.417 298.961 313.534 298.961Z" fill="#FBFDFE"/>
<path d="M223.05 312.651C225.762 312.651 227.96 310.453 227.96 307.741C227.96 305.029 225.762 302.831 223.05 302.831C220.339 302.831 218.14 305.029 218.14 307.741C218.14 310.453 220.339 312.651 223.05 312.651Z" fill="#374151"/>
<path d="M279.486 358.599C280.693 357.105 281.387 355.391 281.387 353.567C281.387 347.813 274.552 343.152 266.125 343.152C257.696 343.152 250.863 347.813 250.863 353.567C250.863 355.393 251.557 357.105 252.765 358.599H279.486Z" fill="#485260"/>
<path d="M251.265 355.924C251.591 356.87 252.095 357.769 252.767 358.599H279.486C280.156 357.769 280.663 356.87 280.986 355.924H251.265Z" fill="#737B7D"/>
<path d="M219.977 457.091C220.372 441.563 216.772 429.319 170.962 424.946C167.081 424.576 142.909 396.833 140.775 394.087C139.378 392.282 138.255 389.952 138.255 389.952L88.3158 393.915L67.0687 405.369L62.9291 407.583C62.9291 407.583 59.9949 412.564 56.2635 420.215V420.238C51.5436 429.887 45.5689 443.701 42.5016 457.089H219.977V457.091Z" fill="#374151"/>
<path d="M50.7347 397.385L55.9436 398.641C55.9436 398.641 64.4682 388.917 67.4757 386.01C70.4832 383.102 75.0954 380.998 75.0954 380.998L66.4303 408.969L59.5538 412.578C59.5538 412.578 50.8319 411.776 47.1229 409.47C47.1244 409.47 44.917 400.136 50.7347 397.385Z" fill="url(#paint0_linear)"/>
<path d="M52.6743 397.851L55.9451 398.639C55.9451 398.639 58.0388 403.705 54.3119 412.576L48.6768 410.243L52.6743 397.851Z" fill="#79AEFF"/>
<path d="M277.368 353.117C277.368 353.117 277.894 357.22 277.687 357.883C277.476 358.543 275.656 360.279 275.656 360.279C275.656 360.279 274.924 361.963 273.077 363.488C273.077 363.488 264.858 368.328 262.704 367.911C260.525 367.487 260.744 365.332 261.696 363.369C262.882 360.928 265.084 359.334 265.342 359.132L265.372 359.117L261.68 357.777C261.68 357.777 260.464 359.678 258.847 362.139C256.855 365.163 254.228 369.02 252.509 371.115C249.384 374.884 235.345 372.931 235.345 372.931L233.571 373.67L233.55 373.662L219.732 379.371C219.732 379.371 219.811 369.648 223.313 365.824L231.821 364.925L232.663 364.837C232.663 364.837 250.378 343.841 252.515 342.382C255.095 340.622 270.737 342.769 275.131 344.796C279.528 346.822 281.716 352.092 281.635 352.901C281.584 353.701 277.368 353.117 277.368 353.117Z" fill="#FED5B0"/>
<path d="M223.21 363.423L234.783 362.771C234.783 362.771 237.726 367.103 237.096 374.422L219.951 379.426L223.21 363.423Z" fill="#8DA2FB"/>
<path d="M114.305 245.645C105.283 250.049 98.2567 248.052 98.2567 248.052C97.657 252.071 98.2567 261.092 98.2567 261.092L73.5938 267.494L76.1916 243.839C76.1916 243.839 73.4248 244.9 69.3555 244.49C64.305 243.984 57.1803 241.171 50.9275 231.015C39.714 212.753 39.4971 160.634 55.1389 152.815C70.7777 144.993 106.271 142.779 116.113 151.201C119.238 153.898 121.068 157.218 122.176 160.899C124.604 168.768 123.809 178.344 125.737 187.102C128.526 199.927 123.328 241.242 114.305 245.645Z" fill="#FED5B0"/>
<path d="M62.9308 407.584C62.9308 407.584 65.9667 414.815 88.0079 411.574C110.046 408.341 139.507 393.759 139.507 393.759L138.562 391.416C138.56 391.416 95.016 386.856 62.9308 407.584Z" fill="#EDEEE9"/>
<path opacity="0.5" d="M116.758 213.019C112.547 221.729 101.405 241.894 101.405 241.894C101.405 241.894 107.039 246.85 114.304 245.646C105.281 250.05 98.2552 248.054 98.2552 248.054C97.6555 252.072 98.2552 261.093 98.2552 261.093L73.5924 267.496L76.1901 243.841C76.1901 243.841 73.4234 244.901 69.354 244.491V232.413L104.079 168.65L122.175 160.9C124.602 168.769 123.808 178.345 125.736 187.103C125.734 187.1 120.969 204.282 116.758 213.019Z" fill="#F9A77A"/>
<path d="M124.841 171.87C124.841 171.897 124.841 171.918 124.841 171.918C123.808 188.521 118.108 206.665 118.108 206.665C119.119 195.547 113.704 181.278 105.066 190.302C99.5309 196.076 100.346 207.073 101.671 214.198C102.39 218.192 103.261 220.982 103.261 220.982C99.6521 231.616 82.3487 243.241 82.3487 243.241C77.9264 245.957 75.8476 245.778 75.8476 245.778C55.5308 246.455 41.395 226.684 39.9039 200.529C38.5325 176.685 33.2264 169.668 43.4663 147.953C51.7516 130.37 124.75 128.408 124.75 151.676C124.75 156.315 125.158 166.263 124.841 171.87Z" fill="#3D444D"/>
<path d="M139.303 387.614L140.773 394.832L138.56 391.416C137.716 391.367 136.873 391.341 136.031 391.392C115.94 391.655 95.1983 408.356 84.2271 410.665C72.7967 413.071 61.1031 406.72 61.1031 406.72C61.1031 406.72 64.4845 382.654 65.4222 375.605C66.3614 368.531 59.6031 349.427 59.6031 349.427C53.9978 341.585 54.6618 334.488 51.4614 326.45C43.5007 306.455 43.04 287.463 45.3536 282.53C45.6168 281.974 45.9533 281.422 46.3422 280.821C47.0585 279.786 48.0217 278.702 49.1284 277.597C49.1044 277.571 49.1284 277.547 49.1777 277.547C55.1688 271.413 73.9273 264.461 73.9273 264.461C106.748 256.619 135.165 260.893 135.165 260.893C145.664 271.395 139.376 313.597 140.797 329.188C141.11 332.413 141.11 334.484 140.773 334.868C140.314 335.374 139.447 336.023 138.392 336.745C134.852 339.104 139.303 387.614 139.303 387.614Z" fill="#EDEEE9"/>
<path d="M219.86 386.324L208.442 385.567C208.442 385.567 173.962 394.854 150.446 387.42C150.446 387.42 140.32 362.845 132.193 342.814C128.111 332.74 124.494 323.825 122.95 319.754C122.95 319.754 113.87 274.046 135.167 260.893C135.167 260.893 156.508 281.454 157.444 317.384C157.444 317.384 164.766 346.197 167.509 352.436C167.509 352.436 196.857 362.347 223.572 361.655C223.572 361.655 223.819 362.467 224.045 363.901L224.037 363.925C224.037 363.925 224.037 363.925 224.03 363.949C224.082 364.191 224.118 364.478 224.173 364.776C224.755 369.248 224.959 377.866 219.86 386.324Z" fill="#EDEEE9"/>
<path opacity="0.5" d="M114.832 206.663C114.832 206.663 115.681 197.72 111.071 195.713L112.458 191.732C112.458 191.732 104.572 199.703 106.152 213.616L108.108 205.642C108.108 205.64 113.815 207.911 114.832 206.663Z" fill="#DB8058"/>
<path opacity="0.5" d="M103.267 220.981C103.267 220.981 106.488 224.592 110.417 222.636C110.417 222.636 104.972 228.323 103.267 220.981Z" fill="#DB8058"/>
<path d="M63.3285 268.946L69.2374 257.497C69.2374 257.497 90.4321 250.783 104.481 252.213L110.157 258.403C110.157 258.401 79.57 260.678 63.3285 268.946Z" fill="#8DA2FB"/>
<path opacity="0.5" d="M47.8184 411.121L52.7312 397.381C51.4286 407.005 48.0352 411.215 48.0352 411.215C47.9634 411.191 47.8931 411.146 47.8184 411.121Z" fill="url(#paint1_linear)"/>
<path d="M272.036 364.084C272.036 364.084 273.646 361.1 272.702 357.135C272.702 357.135 274.133 360.215 273.8 362.83L272.036 364.084Z" fill="url(#paint2_linear)"/>
<path d="M275.654 360.27C275.654 360.27 275.913 352.192 273.504 349.961C273.504 349.961 276.523 352.49 276.602 359.317L275.654 360.27Z" fill="url(#paint3_linear)"/>
<path d="M277.367 353.111C277.367 353.111 275.126 348.129 274.266 347.544C272.258 346.175 262.366 343.142 262.366 343.142C262.366 343.142 271.66 345.119 274.527 346.723C276.369 347.752 279.003 353.278 279.003 353.278L277.367 353.111Z" fill="url(#paint4_linear)"/>
<path d="M224.175 364.775L224.031 363.947C223.939 364.876 222.643 375.847 215.686 380.614C215.686 380.614 167.152 385.133 156.909 374.955C156.095 372.656 158.7 364.795 167.479 352.454C166.887 352.646 157.474 355.927 154.49 357.609L136.762 336.332L113.067 302.387L130.998 343.14C131.41 343.034 130.619 343.249 130.998 343.14C139.124 363.174 150.443 387.42 150.443 387.42C173.961 394.854 208.439 385.567 208.439 385.567L219.857 386.324C224.959 377.866 224.755 369.248 224.175 364.775Z" fill="#D7D8D5"/>
<path d="M-0.330444 386.603C6.54752 394.905 17.6265 404.653 35.1691 412.44C35.9109 412.804 36.6796 413.115 37.4767 413.451C37.5485 413.478 37.6218 413.523 37.6906 413.547C37.6906 413.547 41.0854 409.336 42.388 399.712C42.4583 399.232 42.5316 398.726 42.578 398.222C42.578 398.222 37.3825 395.357 33.026 388.883C28.6441 382.434 24.6016 367.229 15.8707 362.416L15.941 362.344C17.1464 360.758 35.6955 336.934 50.4938 327.527C51.4585 326.924 52.4216 326.374 53.3324 325.891C56.799 324.084 58.4351 320.812 58.8913 316.793C60.5049 302.646 47.4399 279.374 47.4399 279.374C47.4399 279.374 47.4175 279.402 47.3906 279.424C47.3457 279.471 47.271 279.546 47.2485 279.593C46.8851 280.024 45.9489 281.058 44.6014 282.65C44.0451 283.322 43.3975 284.092 42.6737 284.958C33.6406 295.792 13.6408 320.831 -0.330444 346.365V386.603Z" fill="#EDEEE9"/>
<path opacity="0.5" d="M50.0496 457.091C52.9644 447.66 56.8124 438.032 56.8124 438.032C56.8124 438.032 67.1107 441.033 87.4185 431.414C107.723 421.793 146.235 401.533 146.235 401.533L143.699 398.149C140.775 394.087 138.905 393.638 138.905 393.638C138.905 393.638 111.86 408.439 88.2426 411.613C64.6251 414.787 61.3379 407.031 61.3379 407.031L53.3772 426.733C48.7066 436.288 44.8945 445.225 42.4224 457.092H50.0496V457.091Z" fill="url(#paint5_linear)"/>
<path d="M-0.330444 457.091H81.5172C80.7111 454.211 79.926 451.136 79.1663 447.844C66.6426 393.932 60.0922 289.583 60.0922 289.583H-0.330444V457.091Z" fill="#139B9B"/>
<path d="M70.8705 457.091H99.9781C88.7496 435.597 80.5705 386.893 73.3381 300.368C72.6666 292.349 65.7109 288.737 60.0922 289.591C51.4659 290.902 46.6608 295.854 47.6045 304.917C48.5571 314.1 54.7426 405.072 70.8705 457.091Z" fill="#27BEC2"/>
<path d="M81.9061 428.145C96.4965 428.236 111.087 428.326 125.677 428.415C139.762 428.505 154.405 427.555 168.391 429.452C186.456 431.909 195.701 443.028 201.112 457.089H211.385C206.113 441.109 197.034 427.11 179.188 421.863C165.094 417.722 149.552 418.931 135.054 418.841C117.34 418.73 99.6267 418.623 81.9076 418.512C75.7071 418.473 75.6981 428.107 81.9061 428.145Z" fill="#27BEC2"/>
<path d="M104.978 415.206C101.836 419.181 102.024 431.615 108.79 433.107C121.922 436.001 159.503 435.561 165.924 434.493C172.347 433.421 170.349 418.913 165.924 416.507C159.907 413.227 107.339 412.219 104.978 415.206Z" fill="#139B9B"/>
<path d="M60.4661 272.81L67.0494 260.053C67.0494 260.053 90.6564 252.575 106.31 254.165L112.635 261.062C112.633 261.064 78.5576 263.596 60.4661 272.81Z" fill="#EDEEE9"/>
<path d="M124.011 152.577C124.011 152.577 124.275 152.679 124.722 152.882C124.844 152.944 124.94 152.966 125.117 153.074C125.284 153.181 125.468 153.3 125.662 153.424C125.857 153.555 126.063 153.696 126.279 153.839C126.46 153.989 126.653 154.143 126.842 154.315C127.252 154.641 127.622 155.049 128.009 155.488C128.399 155.921 128.736 156.431 129.092 156.952C129.401 157.499 129.738 158.055 129.959 158.672C130.24 159.264 130.373 159.922 130.556 160.551C130.658 161.206 130.806 161.841 130.809 162.494C130.868 163.133 130.792 163.774 130.741 164.378C130.625 164.984 130.542 165.56 130.358 166.089C130.186 166.62 130.014 167.106 129.78 167.53C129.587 167.962 129.338 168.325 129.114 168.636C128.905 168.95 128.709 169.211 128.502 169.396C128.13 169.788 127.906 169.981 127.906 169.981C127.844 170.038 127.749 170.032 127.692 169.967C127.663 169.934 127.652 169.893 127.653 169.855L127.655 169.834C127.655 169.834 127.683 169.529 127.744 169.042C127.78 168.801 127.789 168.502 127.795 168.17C127.8 168.007 127.804 167.832 127.81 167.649C127.794 167.468 127.78 167.275 127.764 167.076C127.755 166.688 127.68 166.269 127.611 165.843C127.548 165.418 127.421 164.972 127.305 164.534C127.038 163.647 126.711 162.757 126.329 161.906C125.912 161.064 125.462 160.273 125.003 159.569C124.765 159.226 124.535 158.89 124.293 158.601C124.046 158.316 123.824 158.028 123.588 157.813C123.474 157.699 123.37 157.584 123.27 157.471C123.178 157.39 123.092 157.312 123.012 157.242C122.933 157.164 122.858 157.091 122.791 157.023C122.733 156.953 122.576 156.865 122.49 156.796C122.087 156.513 121.865 156.337 121.865 156.337C120.914 155.592 120.751 154.213 121.497 153.264C122.106 152.49 123.138 152.239 124.011 152.577Z" fill="#3D444D"/>
<path opacity="0.4" d="M272.135 229.708H173.086C171.659 229.708 170.508 228.557 170.508 227.132V217.707C170.508 216.289 171.659 215.131 173.086 215.131H272.135C273.556 215.131 274.713 216.287 274.713 217.707V227.132C274.712 228.557 273.556 229.708 272.135 229.708Z" fill="#374151"/>
<path opacity="0.4" d="M272.135 250.225H173.086C171.659 250.225 170.508 249.074 170.508 247.649V238.225C170.508 236.8 171.659 235.647 173.086 235.647H272.135C273.556 235.647 274.713 236.8 274.713 238.225V247.649C274.712 249.075 273.556 250.225 272.135 250.225Z" fill="#374151"/>
<path opacity="0.4" d="M272.135 269.427H173.086C171.659 269.427 170.508 268.272 170.508 266.848V257.425C170.508 256.001 171.659 254.85 173.086 254.85H272.135C273.556 254.85 274.713 256.001 274.713 257.425V266.848C274.712 268.272 273.556 269.427 272.135 269.427Z" fill="#374151"/>
<path d="M271.761 229.147H172.712C171.285 229.147 170.134 227.996 170.134 226.57V217.146C170.134 215.728 171.285 214.57 172.712 214.57H271.761C273.182 214.57 274.34 215.726 274.34 217.146V226.57C274.338 227.996 273.182 229.147 271.761 229.147Z" fill="#CDDBFE"/>
<path d="M177.602 225.609V218.704C177.602 218.596 177.659 218.542 177.774 218.542L178.42 218.704L178.31 219.885C178.323 219.98 178.335 220.11 178.344 220.279C178.353 220.448 178.364 220.633 178.371 220.84C178.377 221.046 178.384 221.258 178.39 221.481C178.398 221.703 178.405 221.915 178.411 222.117C178.419 222.32 178.422 222.498 178.422 222.652C178.422 222.806 178.422 222.921 178.422 222.995V225.447C178.422 225.501 178.41 225.54 178.387 225.558C178.364 225.579 178.296 225.592 178.186 225.598C178.072 225.607 177.877 225.609 177.602 225.609ZM180.439 225.609L179.279 222.833C179.238 222.725 179.183 222.573 179.113 222.374C179.041 222.175 178.965 221.951 178.885 221.703C178.805 221.453 178.722 221.203 178.639 220.95C178.553 220.698 178.477 220.464 178.407 220.249C178.335 220.032 178.26 219.793 178.18 219.533L177.714 219.027L177.776 218.542H178.401L179.533 221.269C179.579 221.382 179.638 221.543 179.708 221.747C179.78 221.954 179.856 222.178 179.935 222.423C180.015 222.669 180.097 222.915 180.178 223.161C180.258 223.406 180.333 223.633 180.399 223.841C180.466 224.051 180.544 224.279 180.631 224.528L181.126 225.123L181.044 225.607H180.439V225.609ZM181.045 225.609L180.399 225.447L180.49 224.095C180.477 223.995 180.466 223.862 180.459 223.696C180.453 223.532 180.445 223.351 180.439 223.152C180.432 222.953 180.424 222.749 180.418 222.542C180.411 222.332 180.406 222.133 180.402 221.94C180.399 221.749 180.397 221.58 180.397 221.43C180.397 221.282 180.397 221.169 180.397 221.088V218.705C180.397 218.652 180.409 218.614 180.432 218.595C180.454 218.575 180.525 218.562 180.64 218.554C180.753 218.548 180.946 218.544 181.216 218.544V225.449C181.217 225.555 181.16 225.609 181.045 225.609Z" fill="#606565"/>
<path d="M184.186 225.711C183.855 225.711 183.574 225.655 183.342 225.545C183.11 225.434 182.922 225.241 182.777 224.964C182.632 224.688 182.527 224.312 182.458 223.838C182.391 223.364 182.358 222.763 182.358 222.036C182.358 221.14 182.43 220.431 182.572 219.905C182.712 219.38 182.926 219.005 183.212 218.78C183.498 218.555 183.861 218.441 184.299 218.441C184.622 218.441 184.897 218.501 185.126 218.617C185.355 218.736 185.541 218.93 185.683 219.204C185.823 219.477 185.926 219.841 185.989 220.294C186.054 220.749 186.085 221.318 186.085 222.005C186.085 222.934 186.019 223.668 185.887 224.206C185.756 224.745 185.551 225.13 185.273 225.362C184.99 225.596 184.63 225.711 184.186 225.711ZM184.215 224.861C184.465 224.861 184.658 224.769 184.797 224.583C184.935 224.399 185.035 224.096 185.099 223.675C185.164 223.255 185.195 222.706 185.195 222.024C185.195 221.351 185.167 220.814 185.113 220.415C185.06 220.013 184.966 219.726 184.835 219.552C184.705 219.377 184.518 219.289 184.275 219.289C184.039 219.289 183.848 219.383 183.7 219.57C183.55 219.758 183.444 220.068 183.376 220.499C183.308 220.929 183.275 221.51 183.275 222.235C183.275 222.862 183.305 223.366 183.362 223.75C183.418 224.134 183.517 224.414 183.655 224.592C183.794 224.773 183.981 224.861 184.215 224.861Z" fill="#606565"/>
<path d="M187.223 225.609V218.704C187.223 218.629 187.241 218.584 187.274 218.568C187.307 218.55 187.347 218.541 187.395 218.541H187.99L188.04 219.833L187.827 220.167C187.848 220.355 187.862 220.529 187.872 220.687C187.883 220.846 187.896 221.028 187.913 221.231C187.929 221.438 187.945 221.649 187.962 221.869C187.98 222.087 187.993 222.304 188.002 222.521C188.013 222.736 188.017 222.93 188.017 223.107L188.038 225.447C188.038 225.501 188.023 225.54 187.993 225.558C187.962 225.579 187.892 225.592 187.775 225.598C187.663 225.607 187.477 225.609 187.223 225.609ZM189.01 224.054L188.484 222.44C188.463 222.386 188.433 222.278 188.39 222.115C188.346 221.955 188.292 221.765 188.228 221.546C188.164 221.326 188.1 221.103 188.037 220.874C187.972 220.645 187.914 220.43 187.86 220.228C187.806 220.025 187.742 219.8 187.667 219.552L187.992 218.541L188.95 221.601C188.983 221.701 189.019 221.816 189.057 221.943C189.093 222.07 189.127 222.195 189.157 222.311C189.188 222.429 189.226 222.566 189.272 222.72C189.305 222.564 189.338 222.429 189.368 222.311C189.399 222.195 189.431 222.075 189.463 221.954C189.496 221.833 189.531 221.722 189.564 221.62L190.452 218.703L190.815 219.591C190.748 219.833 190.687 220.053 190.634 220.247C190.581 220.442 190.521 220.653 190.458 220.883C190.394 221.112 190.331 221.335 190.271 221.549C190.21 221.765 190.156 221.952 190.11 222.109C190.063 222.266 190.029 222.377 190.009 222.438L189.475 223.971C189.454 224.025 189.417 224.052 189.365 224.052H189.01V224.054ZM190.443 225.609L190.483 223.146C190.483 222.972 190.488 222.776 190.498 222.56C190.509 222.344 190.522 222.123 190.539 221.894C190.555 221.667 190.57 221.445 190.584 221.233C190.597 221.021 190.611 220.831 190.624 220.663C190.637 220.496 190.651 220.31 190.663 220.108L190.451 219.915V218.704C190.471 218.658 190.489 218.617 190.506 218.587C190.524 218.557 190.558 218.543 190.612 218.543C190.833 218.543 190.992 218.543 191.086 218.543C191.18 218.543 191.243 218.543 191.278 218.543V225.447C191.278 225.501 191.266 225.54 191.243 225.558C191.219 225.579 191.149 225.592 191.035 225.598C190.925 225.607 190.726 225.609 190.443 225.609Z" fill="#606565"/>
<path d="M192.564 225.609V218.734C192.564 218.673 192.583 218.626 192.619 218.592C192.656 218.559 192.728 218.541 192.837 218.541H193.836C194.038 218.541 194.242 218.563 194.442 218.607C194.642 218.65 194.826 218.728 194.986 218.839C195.148 218.949 195.28 219.106 195.381 219.308C195.481 219.51 195.532 219.776 195.532 220.105C195.532 220.475 195.483 220.774 195.381 221.004C195.28 221.234 195.155 221.406 195.007 221.525C194.859 221.643 194.711 221.712 194.563 221.732C194.677 221.738 194.804 221.764 194.941 221.807C195.081 221.851 195.211 221.925 195.336 222.03C195.46 222.133 195.561 222.28 195.638 222.468C195.716 222.657 195.755 222.902 195.755 223.206C195.755 223.542 195.724 223.841 195.659 224.104C195.595 224.368 195.504 224.592 195.386 224.78C195.269 224.969 195.128 225.124 194.967 225.25C194.807 225.374 194.63 225.465 194.442 225.522C194.254 225.579 194.052 225.609 193.836 225.609H192.564ZM193.401 221.43H193.896C194.037 221.43 194.164 221.392 194.274 221.309C194.385 221.228 194.473 221.101 194.538 220.926C194.601 220.751 194.632 220.529 194.632 220.259C194.632 219.984 194.598 219.776 194.527 219.634C194.455 219.492 194.364 219.396 194.249 219.347C194.134 219.296 194.013 219.271 193.886 219.271H193.401V221.43ZM193.401 224.893H193.856C193.984 224.893 194.103 224.861 194.213 224.801C194.324 224.742 194.424 224.646 194.511 224.514C194.598 224.383 194.666 224.217 194.719 224.015C194.771 223.813 194.795 223.566 194.795 223.277C194.795 223.016 194.773 222.809 194.729 222.657C194.686 222.504 194.621 222.391 194.538 222.314C194.452 222.236 194.354 222.189 194.24 222.168C194.125 222.147 194.001 222.136 193.866 222.136H193.401V224.893Z" fill="#606565"/>
<path d="M196.762 225.609V218.704C196.794 218.596 196.853 218.542 196.934 218.542H197.418C197.499 218.542 197.553 218.596 197.578 218.704V225.447C197.578 225.501 197.566 225.54 197.544 225.558C197.52 225.579 197.451 225.592 197.336 225.598C197.224 225.607 197.031 225.609 196.762 225.609ZM197.046 222.742C196.946 222.742 196.89 222.724 196.884 222.691C196.878 222.658 196.874 222.6 196.874 222.521V218.735C196.874 218.714 196.875 218.679 196.88 218.625C196.883 218.571 196.92 218.542 196.995 218.542H197.934C198.357 218.542 198.709 218.613 198.984 218.75C199.261 218.889 199.463 219.103 199.594 219.396C199.726 219.69 199.792 220.071 199.792 220.544C199.792 220.961 199.742 221.309 199.645 221.587C199.548 221.869 199.413 222.091 199.24 222.259C199.069 222.426 198.872 222.549 198.649 222.627C198.426 222.705 198.19 222.743 197.942 222.743H197.046V222.742ZM197.56 221.985H198.025C198.214 221.985 198.369 221.937 198.495 221.839C198.619 221.741 198.715 221.583 198.782 221.365C198.849 221.146 198.882 220.859 198.882 220.502C198.882 220.246 198.858 220.025 198.81 219.836C198.764 219.648 198.682 219.504 198.564 219.407C198.446 219.311 198.286 219.26 198.085 219.26H197.56V221.985ZM199.448 225.63C199.386 225.63 199.314 225.628 199.229 225.624C199.145 225.621 199.057 225.616 198.962 225.609C198.929 225.03 198.86 224.544 198.754 224.149C198.65 223.756 198.538 223.442 198.42 223.21C198.304 222.978 198.155 222.761 197.982 222.558C197.954 222.477 197.974 222.417 198.042 222.377L198.486 222.135C198.568 222.135 198.625 222.166 198.658 222.226C198.873 222.468 199.056 222.719 199.202 222.978C199.35 223.238 199.488 223.57 199.615 223.973C199.744 224.378 199.824 224.861 199.857 225.428C199.857 225.501 199.838 225.554 199.798 225.583C199.76 225.613 199.643 225.63 199.448 225.63Z" fill="#606565"/>
<path d="M200.931 225.609V218.704C200.964 218.596 201.022 218.542 201.103 218.542H203.526C203.526 218.764 203.521 218.927 203.515 219.027C203.508 219.127 203.494 219.195 203.475 219.229C203.456 219.263 203.421 219.28 203.375 219.28H201.749V224.872H203.486C203.486 225.1 203.483 225.268 203.475 225.373C203.468 225.476 203.454 225.542 203.435 225.568C203.415 225.597 203.378 225.609 203.324 225.609H200.931ZM201.043 222.136V221.39H203.275C203.275 221.7 203.267 221.901 203.254 221.994C203.24 222.088 203.197 222.136 203.122 222.136H201.043Z" fill="#606565"/>
<path d="M271.761 249.664H172.712C171.285 249.664 170.134 248.513 170.134 247.088V237.664C170.134 236.239 171.285 235.086 172.712 235.086H271.761C273.182 235.086 274.34 236.239 274.34 237.664V247.088C274.338 248.514 273.182 249.664 271.761 249.664Z" fill="#CDDBFE"/>
<path d="M180.487 241.451L179.529 242.712V242.732L181.053 242.531V243.217L179.529 243.035V243.056L180.496 244.267L179.861 244.63L179.256 243.219H179.235L178.58 244.639L178.005 244.277L178.963 243.047V243.024L177.471 243.217V242.531L178.953 242.722V242.701L178.005 241.472L178.621 241.119L179.246 242.522H179.267L179.882 241.11L180.487 241.451Z" fill="#606565"/>
<path d="M185.081 241.451L184.123 242.712V242.732L185.647 242.531V243.217L184.123 243.035V243.056L185.09 244.267L184.455 244.63L183.851 243.219H183.83L183.175 244.639L182.599 244.277L183.557 243.047V243.024L182.065 243.217V242.531L183.547 242.722V242.701L182.599 241.472L183.215 241.119L183.84 242.522H183.861L184.476 241.11L185.081 241.451Z" fill="#606565"/>
<path d="M189.674 241.451L188.716 242.712V242.732L190.24 242.531V243.217L188.716 243.035V243.056L189.683 244.267L189.048 244.63L188.444 243.219H188.423L187.768 244.639L187.192 244.277L188.15 243.047V243.024L186.658 243.217V242.531L188.14 242.722V242.701L187.192 241.472L187.806 241.119L188.433 242.522H188.452L189.069 241.11L189.674 241.451Z" fill="#606565"/>
<path d="M194.269 241.451L193.31 242.712V242.732L194.834 242.531V243.217L193.31 243.035V243.056L194.278 244.267L193.642 244.63L193.038 243.219H193.017L192.362 244.639L191.786 244.277L192.745 243.047V243.024L191.252 243.217V242.531L192.734 242.722V242.701L191.786 241.472L192.401 241.119L193.027 242.522H193.047L193.663 241.11L194.269 241.451Z" fill="#606565"/>
<path d="M198.863 241.451L197.904 242.712V242.732L199.428 242.531V243.217L197.904 243.035V243.056L198.872 244.267L198.236 244.63L197.632 243.219H197.611L196.956 244.639L196.38 244.277L197.339 243.047V243.024L195.846 243.217V242.531L197.329 242.722V242.701L196.38 241.472L196.997 241.119L197.622 242.522H197.643L198.257 241.11L198.863 241.451Z" fill="#606565"/>
<path d="M203.457 241.451L202.498 242.712V242.732L204.022 242.531V243.217L202.498 243.035V243.056L203.466 244.267L202.83 244.63L202.226 243.219H202.205L201.55 244.639L200.974 244.277L201.933 243.047V243.024L200.441 243.217V242.531L201.923 242.722V242.701L200.974 241.472L201.591 241.119L202.216 242.522H202.237L202.851 241.11L203.457 241.451Z" fill="#606565"/>
<path d="M208.05 241.451L207.091 242.712V242.732L208.615 242.531V243.217L207.091 243.035V243.056L208.059 244.267L207.423 244.63L206.819 243.219H206.798L206.143 244.639L205.567 244.277L206.526 243.047V243.024L205.033 243.217V242.531L206.516 242.722V242.701L205.567 241.472L206.182 241.119L206.809 242.522H206.828L207.444 241.11L208.05 241.451Z" fill="#606565"/>
<path d="M212.646 241.451L211.687 242.712V242.732L213.211 242.531V243.217L211.687 243.035V243.056L212.655 244.267L212.019 244.63L211.415 243.219H211.394L210.739 244.639L210.163 244.277L211.122 243.047V243.024L209.629 243.217V242.531L211.111 242.722V242.701L210.163 241.472L210.778 241.119L211.404 242.522H211.424L212.04 241.11L212.646 241.451Z" fill="#606565"/>
<path d="M217.238 241.451L216.28 242.712V242.732L217.804 242.531V243.217L216.28 243.035V243.056L217.247 244.267L216.612 244.63L216.008 243.219H215.987L215.332 244.639L214.756 244.277L215.714 243.047V243.024L214.222 243.217V242.531L215.704 242.722V242.701L214.756 241.472L215.372 241.119L215.997 242.522H216.018L216.633 241.11L217.238 241.451Z" fill="#606565"/>
<path d="M221.833 241.451L220.874 242.712V242.732L222.398 242.531V243.217L220.874 243.035V243.056L221.842 244.267L221.206 244.63L220.602 243.219H220.581L219.926 244.639L219.35 244.277L220.309 243.047V243.024L218.816 243.217V242.531L220.298 242.722V242.701L219.35 241.472L219.966 241.119L220.591 242.522H220.612L221.227 241.11L221.833 241.451Z" fill="#606565"/>
<path d="M271.761 268.866H172.712C171.285 268.866 170.134 267.711 170.134 266.287V256.864C170.134 255.44 171.285 254.289 172.712 254.289H271.761C273.182 254.289 274.34 255.44 274.34 256.864V266.287C274.338 267.711 273.182 268.866 271.761 268.866Z" fill="#CDDBFE"/>
<path d="M180.487 260.649L179.529 261.91V261.931L181.053 261.729V262.415L179.529 262.233V262.254L180.496 263.465L179.861 263.827L179.256 262.417H179.235L178.58 263.838L178.005 263.476L178.963 262.245V262.224L177.471 262.417V261.73L178.953 261.922V261.901L178.005 260.671L178.621 260.319L179.246 261.721H179.267L179.882 260.31L180.487 260.649Z" fill="#606565"/>
<path d="M185.081 260.649L184.123 261.91V261.931L185.647 261.729V262.415L184.123 262.233V262.254L185.09 263.465L184.455 263.827L183.851 262.417H183.83L183.175 263.838L182.599 263.476L183.557 262.245V262.224L182.065 262.417V261.73L183.547 261.922V261.901L182.599 260.671L183.215 260.319L183.84 261.721H183.861L184.476 260.31L185.081 260.649Z" fill="#606565"/>
<path d="M189.674 260.649L188.716 261.91V261.931L190.24 261.729V262.415L188.716 262.233V262.254L189.683 263.465L189.048 263.827L188.444 262.417H188.423L187.768 263.838L187.192 263.476L188.15 262.245V262.224L186.658 262.417V261.73L188.14 261.922V261.901L187.192 260.671L187.806 260.319L188.433 261.721H188.452L189.069 260.31L189.674 260.649Z" fill="#606565"/>
<path d="M194.269 260.649L193.31 261.91V261.931L194.834 261.729V262.415L193.31 262.233V262.254L194.278 263.465L193.642 263.827L193.038 262.417H193.017L192.362 263.838L191.786 263.476L192.745 262.245V262.224L191.252 262.417V261.73L192.734 261.922V261.901L191.786 260.672L192.401 260.319L193.029 261.718H193.048L193.664 260.307L194.269 260.649Z" fill="#606565"/>
<path d="M198.863 260.649L197.904 261.91V261.931L199.428 261.729V262.415L197.904 262.233V262.254L198.872 263.465L198.236 263.827L197.632 262.417H197.611L196.956 263.838L196.38 263.476L197.339 262.245V262.224L195.846 262.417V261.73L197.329 261.922V261.901L196.38 260.671L196.997 260.319L197.622 261.721H197.643L198.257 260.31L198.863 260.649Z" fill="#606565"/>
<path d="M203.457 260.649L202.498 261.91V261.931L204.022 261.729V262.415L202.498 262.233V262.254L203.466 263.465L202.83 263.827L202.226 262.417H202.205L201.55 263.838L200.974 263.476L201.933 262.245V262.224L200.441 262.417V261.73L201.923 261.922V261.901L200.974 260.671L201.591 260.319L202.216 261.721H202.237L202.851 260.31L203.457 260.649Z" fill="#606565"/>
<path d="M208.05 260.649L207.091 261.91V261.931L208.615 261.729V262.415L207.091 262.233V262.254L208.059 263.465L207.423 263.827L206.819 262.417H206.798L206.143 263.838L205.567 263.476L206.526 262.245V262.224L205.033 262.417V261.73L206.516 261.922V261.901L205.567 260.671L206.182 260.319L206.809 261.721H206.828L207.444 260.31L208.05 260.649Z" fill="#606565"/>
<path d="M212.646 260.649L211.687 261.91V261.931L213.211 261.729V262.415L211.687 262.233V262.254L212.655 263.465L212.019 263.827L211.415 262.417H211.394L210.739 263.838L210.163 263.476L211.122 262.245V262.224L209.629 262.417V261.73L211.111 261.922V261.901L210.163 260.671L210.778 260.319L211.404 261.721H211.424L212.04 260.31L212.646 260.649Z" fill="#606565"/>
<path d="M217.238 260.649L216.28 261.91V261.931L217.804 261.729V262.415L216.28 262.233V262.254L217.247 263.465L216.612 263.827L216.008 262.417H215.987L215.332 263.838L214.756 263.476L215.714 262.245V262.224L214.222 262.417V261.73L215.704 261.922V261.901L214.756 260.671L215.372 260.319L215.997 261.721H216.018L216.633 260.31L217.238 260.649Z" fill="#606565"/>
<path d="M221.833 260.649L220.874 261.91V261.931L222.398 261.729V262.415L220.874 262.233V262.254L221.842 263.465L221.206 263.827L220.602 262.417H220.581L219.926 263.838L219.35 263.476L220.309 262.245V262.224L218.816 262.417V261.73L220.298 261.922V261.901L219.35 260.671L219.966 260.319L220.591 261.721H220.612L221.227 260.31L221.833 260.649Z" fill="#606565"/>
<path d="M239.936 292.5H207.899C204.516 292.5 201.779 289.763 201.779 286.383V284.226C201.779 280.843 204.516 278.105 207.899 278.105H239.936C243.316 278.105 246.053 280.843 246.053 284.226V286.383C246.051 289.763 243.315 292.5 239.936 292.5Z" fill="#5850EC"/>
<path d="M174.78 208.299C174.474 208.299 174.193 208.26 173.938 208.184C173.683 208.106 173.46 207.97 173.268 207.774C173.075 207.577 172.914 207.299 172.779 206.938C172.645 206.578 172.544 206.114 172.477 205.547C172.41 204.982 172.377 204.29 172.377 203.475C172.377 202.514 172.434 201.705 172.549 201.047C172.664 200.391 172.821 199.857 173.017 199.45C173.213 199.043 173.433 198.729 173.678 198.506C173.923 198.287 174.179 198.136 174.45 198.053C174.717 197.971 174.981 197.931 175.241 197.931C175.634 197.931 175.929 197.971 176.126 198.053C176.324 198.136 176.452 198.237 176.515 198.363C176.578 198.487 176.609 198.622 176.609 198.767C176.609 198.939 176.588 199.103 176.545 199.256C176.502 199.408 176.451 199.538 176.394 199.645C176.336 199.607 176.265 199.565 176.185 199.522C176.102 199.48 176.011 199.443 175.909 199.414C175.809 199.386 175.7 199.372 175.585 199.372C175.413 199.372 175.244 199.404 175.081 199.467C174.918 199.529 174.767 199.645 174.628 199.812C174.487 199.98 174.366 200.216 174.26 200.518C174.155 200.82 174.07 201.204 174.009 201.67C173.946 202.136 173.914 202.704 173.914 203.377C173.914 204.031 173.941 204.572 173.994 205.005C174.046 205.437 174.124 205.773 174.224 206.013C174.324 206.252 174.451 206.422 174.605 206.524C174.759 206.626 174.942 206.675 175.153 206.675C175.392 206.675 175.618 206.647 175.829 206.588C176.041 206.531 176.209 206.46 176.333 206.371C176.391 206.487 176.44 206.621 176.485 206.777C176.527 206.931 176.549 207.088 176.549 207.251C176.549 207.453 176.478 207.635 176.333 207.798C176.188 207.96 175.986 208.085 175.721 208.172C175.456 208.259 175.145 208.299 174.78 208.299Z" fill="#5850EC"/>
<path d="M177.921 208.184C177.825 208.184 177.691 208.178 177.517 208.169C177.344 208.159 177.172 208.145 176.998 208.126L179.46 198.306C179.488 198.134 179.68 198.047 180.036 198.047C180.16 198.047 180.285 198.052 180.41 198.062C180.535 198.071 180.64 198.082 180.727 198.091L183.188 207.91C183.208 207.999 183.178 208.066 183.101 208.112C183.024 208.16 182.837 208.186 182.539 208.186C182.445 208.186 182.325 208.183 182.188 208.178C182.049 208.172 181.883 208.165 181.691 208.156L180.538 202.872C180.481 202.592 180.423 202.298 180.366 201.985C180.308 201.674 180.258 201.357 180.214 201.035C180.172 200.712 180.139 200.413 180.119 200.134C180.089 200.413 180.052 200.712 180.004 201.035C179.956 201.357 179.908 201.674 179.861 201.985C179.813 202.298 179.754 202.592 179.687 202.872L178.594 207.91C178.574 207.999 178.531 208.066 178.464 208.112C178.399 208.16 178.217 208.184 177.921 208.184ZM178.582 205.779V204.454H181.91V205.779H178.582Z" fill="#5850EC"/>
<path d="M183.722 208.156V198.349C183.722 198.215 183.752 198.135 183.809 198.112C183.867 198.088 183.928 198.076 183.997 198.076H185.105L185.177 200.51L184.773 200.869C184.811 201.1 184.844 201.314 184.868 201.511C184.892 201.708 184.918 201.943 184.947 202.217C184.977 202.491 185.005 202.785 185.034 203.102C185.064 203.419 185.089 203.751 185.114 204.097C185.138 204.441 185.149 204.788 185.149 205.133L185.179 207.883C185.179 207.978 185.152 208.043 185.099 208.078C185.047 208.112 184.92 208.133 184.718 208.142C184.513 208.151 184.183 208.156 183.722 208.156ZM186.285 205.808L185.579 203.705C185.55 203.6 185.505 203.43 185.442 203.193C185.381 202.959 185.307 202.689 185.227 202.387C185.144 202.085 185.064 201.782 184.981 201.474C184.899 201.167 184.826 200.88 184.758 200.611C184.691 200.341 184.613 200.039 184.528 199.704L185.105 198.076L186.315 201.892C186.383 202.085 186.439 202.272 186.487 202.455C186.535 202.637 186.577 202.797 186.61 202.936C186.643 203.075 186.685 203.226 186.733 203.391C186.762 203.228 186.792 203.075 186.827 202.936C186.861 202.797 186.899 202.642 186.942 202.468C186.984 202.295 187.036 202.112 187.093 201.921L188.174 198.349L188.85 199.746C188.764 200.063 188.687 200.353 188.62 200.618C188.553 200.883 188.478 201.17 188.399 201.481C188.316 201.794 188.236 202.099 188.153 202.395C188.071 202.692 187.998 202.957 187.93 203.187C187.863 203.416 187.811 203.591 187.773 203.705L187.054 205.707C187.033 205.775 186.981 205.808 186.896 205.808H186.285ZM188.158 208.156L188.23 205.16C188.23 204.816 188.242 204.472 188.265 204.131C188.289 203.79 188.315 203.458 188.345 203.131C188.375 202.805 188.4 202.504 188.424 202.23C188.449 201.957 188.475 201.716 188.505 201.511C188.533 201.305 188.562 201.082 188.592 200.841L188.174 200.539V198.351C188.212 198.255 188.246 198.185 188.274 198.141C188.303 198.098 188.361 198.076 188.446 198.076C188.85 198.076 189.136 198.076 189.303 198.076C189.471 198.076 189.588 198.076 189.655 198.076V207.883C189.655 207.978 189.632 208.043 189.591 208.078C189.547 208.111 189.426 208.133 189.223 208.142C189.021 208.151 188.665 208.156 188.158 208.156Z" fill="#5850EC"/>
<path d="M190.649 208.156V198.364C190.649 198.269 190.679 198.197 190.736 198.147C190.794 198.1 190.899 198.074 191.053 198.074H192.464C192.772 198.074 193.069 198.106 193.358 198.168C193.645 198.23 193.904 198.343 194.136 198.506C194.366 198.669 194.55 198.895 194.69 199.184C194.829 199.471 194.9 199.851 194.9 200.322C194.9 200.83 194.829 201.248 194.69 201.574C194.55 201.901 194.381 202.153 194.179 202.33C193.977 202.508 193.771 202.612 193.56 202.64C193.721 202.651 193.902 202.685 194.1 202.748C194.296 202.811 194.478 202.915 194.645 203.065C194.813 203.214 194.952 203.422 195.063 203.691C195.173 203.961 195.227 204.305 195.227 204.726C195.227 205.139 195.193 205.523 195.121 205.879C195.048 206.234 194.939 206.551 194.789 206.831C194.64 207.11 194.457 207.347 194.242 207.544C194.026 207.741 193.775 207.891 193.492 207.999C193.21 208.103 192.887 208.156 192.522 208.156H190.649ZM192.146 202.093H192.564C192.707 202.093 192.831 202.036 192.938 201.921C193.042 201.806 193.128 201.638 193.189 201.417C193.252 201.197 193.283 200.932 193.283 200.626C193.283 200.27 193.252 200 193.189 199.818C193.128 199.637 193.042 199.514 192.938 199.452C192.831 199.389 192.718 199.357 192.592 199.357H192.146V202.093ZM192.146 206.887H192.55C192.694 206.887 192.821 206.846 192.932 206.759C193.041 206.671 193.138 206.542 193.219 206.368C193.301 206.196 193.365 205.986 193.413 205.736C193.461 205.486 193.486 205.193 193.486 204.856C193.486 204.512 193.464 204.24 193.421 204.043C193.379 203.847 193.317 203.696 193.241 203.59C193.163 203.484 193.071 203.415 192.96 203.38C192.849 203.347 192.722 203.33 192.577 203.33H192.146V206.887Z" fill="#5850EC"/>
<path d="M195.888 208.156V198.723C195.888 198.503 195.914 198.349 195.961 198.263C196.008 198.174 196.135 198.122 196.343 198.104C196.549 198.085 196.896 198.074 197.387 198.074V207.882C197.387 207.976 197.364 208.042 197.321 208.076C197.279 208.109 197.153 208.132 196.947 208.141C196.741 208.151 196.388 208.156 195.888 208.156Z" fill="#5850EC"/>
<path d="M198.842 208.184C198.746 208.184 198.612 208.178 198.438 208.169C198.265 208.159 198.093 208.145 197.919 208.126L200.381 198.306C200.409 198.134 200.601 198.047 200.957 198.047C201.081 198.047 201.206 198.052 201.331 198.062C201.456 198.071 201.561 198.082 201.648 198.091L204.109 207.91C204.129 207.999 204.099 208.066 204.022 208.112C203.945 208.16 203.758 208.186 203.46 208.186C203.366 208.186 203.246 208.183 203.109 208.178C202.97 208.172 202.804 208.165 202.612 208.156L201.459 202.872C201.402 202.592 201.344 202.298 201.287 201.985C201.229 201.674 201.179 201.357 201.135 201.035C201.093 200.712 201.06 200.413 201.04 200.134C201.01 200.413 200.973 200.712 200.925 201.035C200.877 201.357 200.83 201.674 200.782 201.985C200.734 202.298 200.675 202.592 200.608 202.872L199.515 207.91C199.495 207.999 199.452 208.066 199.385 208.112C199.321 208.16 199.138 208.184 198.842 208.184ZM199.503 205.779V204.454H202.831V205.779H199.503Z" fill="#5850EC"/>
<path d="M204.66 208.156V198.349C204.707 198.167 204.799 198.074 204.935 198.074H205.856C205.991 198.074 206.08 198.167 206.13 198.349V207.882C206.13 207.976 206.107 208.042 206.065 208.076C206.022 208.109 205.896 208.132 205.69 208.141C205.482 208.151 205.14 208.156 204.66 208.156ZM205.12 204.195C204.957 204.195 204.864 204.169 204.845 204.115C204.826 204.062 204.817 203.964 204.817 203.82V198.364C204.817 198.354 204.818 198.305 204.824 198.212C204.829 198.121 204.903 198.074 205.045 198.074H206.314C206.918 198.074 207.425 198.164 207.833 198.342C208.241 198.52 208.549 198.819 208.754 199.242C208.959 199.665 209.064 200.25 209.064 200.999C209.064 201.634 208.989 202.156 208.841 202.57C208.692 202.981 208.49 203.306 208.229 203.54C207.971 203.775 207.681 203.944 207.359 204.044C207.037 204.145 206.707 204.197 206.372 204.197H205.12V204.195ZM206.113 202.857H206.53C206.722 202.857 206.882 202.802 207.012 202.691C207.142 202.582 207.242 202.384 207.314 202.1C207.387 201.818 207.422 201.426 207.422 200.928C207.422 200.573 207.398 200.276 207.35 200.041C207.302 199.806 207.217 199.631 207.097 199.514C206.978 199.401 206.821 199.342 206.629 199.342H206.11V202.857H206.113ZM208.505 208.199C208.389 208.199 208.256 208.193 208.108 208.184C207.959 208.174 207.803 208.163 207.64 208.154C207.61 207.318 207.529 206.624 207.395 206.066C207.26 205.51 207.114 205.073 206.957 204.756C206.798 204.439 206.595 204.148 206.345 203.878C206.297 203.744 206.33 203.648 206.445 203.591L207.266 203.129C207.401 203.129 207.491 203.177 207.54 203.274C207.866 203.6 208.135 203.946 208.346 204.311C208.558 204.674 208.753 205.148 208.937 205.728C209.119 206.309 209.225 207.016 209.254 207.852C209.254 207.976 209.219 208.066 209.146 208.118C209.073 208.171 208.859 208.199 208.505 208.199Z" fill="#5850EC"/>
<path d="M214.291 208.299C213.984 208.299 213.703 208.26 213.449 208.184C213.193 208.106 212.97 207.97 212.779 207.774C212.586 207.577 212.424 207.299 212.29 206.938C212.155 206.578 212.055 206.114 211.988 205.547C211.92 204.982 211.887 204.29 211.887 203.475C211.887 202.514 211.944 201.705 212.059 201.047C212.175 200.391 212.332 199.857 212.528 199.45C212.723 199.043 212.943 198.729 213.189 198.506C213.434 198.287 213.69 198.136 213.96 198.053C214.228 197.971 214.491 197.931 214.751 197.931C215.145 197.931 215.439 197.971 215.637 198.053C215.834 198.136 215.963 198.237 216.026 198.363C216.088 198.487 216.12 198.622 216.12 198.767C216.12 198.939 216.099 199.103 216.056 199.256C216.012 199.408 215.961 199.538 215.904 199.645C215.846 199.607 215.776 199.565 215.695 199.522C215.613 199.48 215.522 199.443 215.42 199.414C215.32 199.386 215.211 199.372 215.095 199.372C214.923 199.372 214.754 199.404 214.591 199.467C214.428 199.529 214.277 199.645 214.138 199.812C213.998 199.98 213.877 200.216 213.77 200.518C213.666 200.82 213.58 201.204 213.519 201.67C213.456 202.136 213.425 202.704 213.425 203.377C213.425 204.031 213.452 204.572 213.504 205.005C213.556 205.437 213.634 205.773 213.734 206.013C213.835 206.252 213.962 206.422 214.116 206.524C214.27 206.626 214.452 206.675 214.663 206.675C214.902 206.675 215.128 206.647 215.339 206.588C215.552 206.531 215.719 206.46 215.843 206.371C215.901 206.487 215.951 206.621 215.996 206.777C216.038 206.931 216.06 207.088 216.06 207.251C216.06 207.453 215.988 207.635 215.843 207.798C215.698 207.96 215.496 208.085 215.231 208.172C214.967 208.259 214.656 208.299 214.291 208.299Z" fill="#5850EC"/>
<path d="M219.129 208.299C218.659 208.299 218.259 208.221 217.927 208.069C217.595 207.916 217.327 207.647 217.12 207.263C216.914 206.878 216.763 206.346 216.666 205.664C216.572 204.984 216.522 204.115 216.522 203.059C216.522 201.762 216.622 200.742 216.824 199.999C217.026 199.254 217.33 198.723 217.738 198.408C218.145 198.091 218.661 197.934 219.286 197.934C219.747 197.934 220.14 198.016 220.466 198.177C220.793 198.34 221.057 198.613 221.257 198.992C221.46 199.371 221.606 199.888 221.697 200.539C221.789 201.192 221.834 202.012 221.834 203C221.834 204.345 221.74 205.401 221.553 206.168C221.365 206.937 221.073 207.484 220.674 207.81C220.279 208.136 219.763 208.299 219.129 208.299ZM219.202 206.787C219.48 206.787 219.691 206.663 219.835 206.413C219.98 206.164 220.083 205.763 220.144 205.211C220.207 204.659 220.239 203.941 220.239 203.059C220.239 202.176 220.215 201.469 220.167 200.941C220.119 200.413 220.025 200.033 219.886 199.797C219.747 199.561 219.539 199.444 219.259 199.444C218.99 199.444 218.779 199.571 218.625 199.825C218.471 200.081 218.36 200.495 218.293 201.071C218.226 201.648 218.193 202.42 218.193 203.391C218.193 204.186 218.22 204.835 218.273 205.335C218.326 205.833 218.425 206.201 218.568 206.436C218.712 206.669 218.924 206.787 219.202 206.787Z" fill="#5850EC"/>
<path d="M222.672 208.156V198.349C222.672 198.167 222.765 198.074 222.947 198.074L224.142 198.349L223.925 200.524C223.955 200.705 223.974 200.908 223.989 201.128C224.004 201.348 224.021 201.58 224.04 201.819C224.06 202.058 224.073 202.301 224.082 202.546C224.093 202.79 224.103 203.027 224.112 203.259C224.123 203.49 224.13 203.703 224.135 203.901C224.139 204.097 224.142 204.267 224.142 204.412V207.882C224.142 207.976 224.12 208.042 224.078 208.076C224.034 208.109 223.912 208.132 223.71 208.141C223.506 208.151 223.161 208.156 222.672 208.156ZM226.544 208.156L224.975 204.267C224.897 204.055 224.815 203.804 224.722 203.51C224.631 203.219 224.538 202.905 224.441 202.568C224.344 202.232 224.256 201.904 224.175 201.581C224.093 201.26 224.016 200.965 223.945 200.696C223.871 200.427 223.797 200.129 223.722 199.803L222.872 198.924L222.946 198.074H224.097L225.638 201.891C225.724 202.111 225.815 202.375 225.913 202.682C226.007 202.99 226.104 203.309 226.2 203.641C226.294 203.973 226.384 204.296 226.466 204.613C226.548 204.93 226.62 205.217 226.683 205.476C226.746 205.736 226.82 206.013 226.906 206.312L227.784 207.305L227.668 208.154H226.544V208.156ZM227.667 208.156L226.487 207.882L226.674 205.405C226.644 205.203 226.625 204.996 226.61 204.779C226.595 204.562 226.58 204.345 226.566 204.124C226.551 203.904 226.536 203.682 226.524 203.463C226.509 203.243 226.499 203.026 226.494 202.814C226.488 202.603 226.487 202.407 226.487 202.223C226.487 202.039 226.487 201.873 226.487 201.719V198.349C226.487 198.254 226.509 198.189 226.551 198.155C226.595 198.122 226.717 198.1 226.919 198.089C227.121 198.08 227.461 198.074 227.942 198.074V207.882C227.942 208.064 227.851 208.156 227.667 208.156Z" fill="#5850EC"/>
<path d="M228.561 199.443V198.349C228.561 198.167 228.653 198.074 228.835 198.074H233.73V199.184C233.73 199.289 233.71 199.359 233.673 199.393C233.634 199.426 233.562 199.443 233.456 199.443H228.561ZM230.39 208.156V198.234C230.438 198.224 230.529 198.219 230.664 198.219H231.585C231.72 198.219 231.811 198.224 231.86 198.234V207.882C231.86 207.976 231.838 208.042 231.795 208.076C231.753 208.109 231.627 208.132 231.421 208.141C231.213 208.151 230.869 208.156 230.39 208.156Z" fill="#5850EC"/>
<path d="M234.364 208.156V198.349C234.412 198.167 234.503 198.074 234.639 198.074H235.56C235.695 198.074 235.785 198.167 235.834 198.349V207.882C235.834 207.976 235.812 208.042 235.77 208.076C235.726 208.109 235.601 208.132 235.394 208.141C235.188 208.151 234.844 208.156 234.364 208.156ZM234.826 204.195C234.663 204.195 234.57 204.169 234.551 204.115C234.531 204.062 234.522 203.964 234.522 203.82V198.364C234.522 198.354 234.524 198.305 234.53 198.212C234.534 198.121 234.609 198.074 234.751 198.074H236.019C236.624 198.074 237.131 198.164 237.539 198.342C237.947 198.52 238.255 198.819 238.46 199.242C238.665 199.665 238.77 200.25 238.77 200.999C238.77 201.634 238.695 202.156 238.547 202.57C238.397 202.981 238.195 203.306 237.935 203.54C237.677 203.775 237.386 203.944 237.065 204.044C236.743 204.145 236.413 204.197 236.078 204.197H234.826V204.195ZM235.819 202.857H236.236C236.428 202.857 236.588 202.802 236.718 202.691C236.848 202.582 236.948 202.384 237.02 202.1C237.093 201.818 237.128 201.426 237.128 200.928C237.128 200.573 237.104 200.276 237.056 200.041C237.008 199.806 236.923 199.631 236.803 199.514C236.683 199.401 236.526 199.342 236.335 199.342H235.816V202.857H235.819ZM238.209 208.199C238.094 208.199 237.961 208.193 237.813 208.184C237.663 208.174 237.508 208.163 237.344 208.154C237.315 207.318 237.234 206.624 237.099 206.066C236.965 205.51 236.818 205.073 236.661 204.756C236.503 204.439 236.299 204.148 236.049 203.878C236.002 203.744 236.034 203.648 236.15 203.591L236.971 203.129C237.105 203.129 237.195 203.177 237.244 203.274C237.57 203.6 237.84 203.946 238.05 204.311C238.263 204.674 238.457 205.148 238.641 205.728C238.824 206.309 238.93 207.016 238.958 207.852C238.958 207.976 238.924 208.066 238.851 208.118C238.777 208.171 238.565 208.199 238.209 208.199Z" fill="#5850EC"/>
<path d="M240.125 208.184C240.029 208.184 239.894 208.178 239.721 208.169C239.547 208.159 239.376 208.145 239.202 208.126L241.664 198.306C241.692 198.134 241.884 198.047 242.239 198.047C242.364 198.047 242.489 198.052 242.613 198.062C242.739 198.071 242.844 198.082 242.93 198.091L245.392 207.91C245.411 207.999 245.382 208.066 245.305 208.112C245.228 208.16 245.041 208.186 244.743 208.186C244.649 208.186 244.529 208.183 244.392 208.178C244.252 208.172 244.086 208.165 243.895 208.156L242.742 202.872C242.685 202.592 242.627 202.298 242.57 201.985C242.512 201.674 242.462 201.357 242.417 201.035C242.376 200.712 242.343 200.413 242.323 200.134C242.293 200.413 242.256 200.712 242.208 201.035C242.16 201.357 242.112 201.674 242.064 201.985C242.017 202.298 241.958 202.592 241.891 202.872L240.798 207.91C240.778 207.999 240.735 208.066 240.668 208.112C240.603 208.16 240.421 208.184 240.125 208.184ZM240.786 205.779V204.454H244.113V205.779H240.786Z" fill="#5850EC"/>
<path d="M247.481 208.299C246.837 208.299 246.363 208.203 246.056 208.011C245.748 207.819 245.594 207.604 245.594 207.363C245.594 207.218 245.621 207.049 245.675 206.852C245.727 206.654 245.815 206.475 245.941 206.312C246.095 206.446 246.291 206.561 246.532 206.657C246.771 206.751 247.036 206.801 247.323 206.801C247.755 206.801 248.057 206.688 248.231 206.463C248.402 206.237 248.489 205.936 248.489 205.561C248.489 205.292 248.44 205.037 248.338 204.798C248.236 204.559 248.053 204.266 247.783 203.919L246.43 202.191C246.104 201.759 245.884 201.384 245.769 201.061C245.654 200.739 245.595 200.415 245.595 200.09C245.595 199.447 245.811 198.927 246.237 198.527C246.663 198.128 247.296 197.931 248.132 197.931C248.842 197.931 249.342 198.002 249.629 198.148C249.916 198.291 250.061 198.48 250.061 198.708C250.061 198.834 250.034 198.969 249.98 199.112C249.928 199.257 249.838 199.395 249.714 199.529C249.627 199.473 249.463 199.407 249.218 199.335C248.972 199.263 248.702 199.227 248.404 199.227C248.03 199.227 247.732 199.298 247.511 199.437C247.29 199.577 247.179 199.779 247.179 200.048C247.179 200.279 247.227 200.492 247.323 200.69C247.418 200.887 247.563 201.115 247.755 201.373L249.195 203.146C249.55 203.587 249.787 203.988 249.908 204.348C250.028 204.708 250.088 205.1 250.088 205.522C250.088 206.001 250.012 206.452 249.859 206.875C249.704 207.297 249.443 207.641 249.074 207.904C248.703 208.166 248.172 208.299 247.481 208.299Z" fill="#5850EC"/>
<path d="M250.851 208.156V198.349C250.898 198.167 250.99 198.074 251.124 198.074H254.582C254.582 198.469 254.576 198.756 254.567 198.939C254.557 199.121 254.534 199.241 254.494 199.299C254.456 199.356 254.394 199.386 254.307 199.386H252.306V206.844H254.494C254.494 207.255 254.489 207.554 254.48 207.737C254.47 207.919 254.449 208.034 254.414 208.082C254.38 208.13 254.317 208.154 254.22 208.154H250.851V208.156ZM250.981 203.361V202.021H254.19C254.19 202.568 254.181 202.927 254.162 203.101C254.141 203.274 254.069 203.361 253.945 203.361H250.981Z" fill="#5850EC"/>
<path d="M255.258 208.156V198.35C255.258 198.167 255.351 198.074 255.533 198.074L256.728 198.35L256.511 200.524C256.541 200.705 256.561 200.908 256.576 201.128C256.59 201.348 256.607 201.58 256.626 201.819C256.646 202.058 256.659 202.301 256.668 202.546C256.679 202.79 256.689 203.028 256.698 203.259C256.709 203.49 256.716 203.704 256.721 203.901C256.725 204.097 256.728 204.267 256.728 204.412V207.882C256.728 207.976 256.706 208.042 256.664 208.076C256.62 208.109 256.498 208.132 256.296 208.141C256.092 208.151 255.747 208.156 255.258 208.156ZM259.131 208.156L257.563 204.267C257.485 204.055 257.403 203.804 257.31 203.511C257.219 203.219 257.126 202.905 257.029 202.568C256.931 202.232 256.843 201.904 256.762 201.581C256.68 201.26 256.604 200.965 256.532 200.696C256.459 200.427 256.384 200.129 256.309 199.803L255.46 198.924L255.533 198.074H256.685L258.225 201.891C258.312 202.111 258.403 202.375 258.5 202.682C258.595 202.99 258.692 203.309 258.787 203.641C258.882 203.973 258.971 204.296 259.054 204.613C259.136 204.93 259.208 205.217 259.27 205.476C259.333 205.736 259.408 206.013 259.493 206.312L260.371 207.305L260.256 208.154H259.131V208.156ZM258.411 197.342C258.219 197.342 258.074 197.31 257.98 197.247C257.884 197.184 257.805 197.113 257.742 197.03C257.679 196.948 257.612 196.875 257.54 196.808C257.468 196.74 257.365 196.707 257.231 196.707C257.077 196.707 256.954 196.748 256.864 196.83C256.771 196.912 256.695 196.992 256.634 197.074C256.571 197.156 256.507 197.196 256.439 197.196C256.305 197.196 256.184 197.134 256.079 197.009C255.974 196.885 255.859 196.707 255.735 196.477C255.983 196.055 256.273 195.756 256.605 195.577C256.937 195.397 257.232 195.309 257.491 195.309C257.636 195.309 257.755 195.343 257.851 195.411C257.947 195.478 258.031 195.553 258.102 195.632C258.176 195.714 258.257 195.788 258.348 195.855C258.439 195.922 258.553 195.955 258.687 195.955C258.907 195.955 259.064 195.915 259.155 195.833C259.248 195.752 259.321 195.671 259.378 195.589C259.435 195.506 259.502 195.466 259.58 195.466C259.676 195.466 259.76 195.533 259.833 195.668C259.905 195.803 259.984 196.009 260.069 196.287C260.06 196.298 260.012 196.357 259.926 196.467C259.837 196.577 259.718 196.7 259.565 196.835C259.413 196.969 259.239 197.086 259.046 197.186C258.853 197.291 258.641 197.342 258.411 197.342ZM260.255 208.156L259.075 207.882L259.261 205.405C259.232 205.204 259.212 204.996 259.197 204.779C259.182 204.562 259.167 204.345 259.154 204.124C259.139 203.904 259.124 203.683 259.112 203.463C259.097 203.243 259.087 203.026 259.082 202.814C259.076 202.603 259.075 202.407 259.075 202.223C259.075 202.039 259.075 201.873 259.075 201.719V198.35C259.075 198.254 259.097 198.189 259.139 198.155C259.182 198.122 259.305 198.1 259.507 198.089C259.709 198.08 260.048 198.074 260.53 198.074V207.882C260.528 208.065 260.437 208.156 260.255 208.156Z" fill="#5850EC"/>
<path d="M261.984 208.184C261.888 208.184 261.753 208.178 261.58 208.169C261.406 208.159 261.234 208.145 261.061 208.126L263.522 198.306C263.551 198.134 263.742 198.047 264.098 198.047C264.222 198.047 264.348 198.052 264.472 198.062C264.598 198.071 264.702 198.082 264.789 198.091L267.251 207.91C267.27 207.999 267.24 208.066 267.164 208.112C267.086 208.16 266.899 208.186 266.602 208.186C266.508 208.186 266.388 208.183 266.25 208.178C266.111 208.172 265.945 208.165 265.754 208.156L264.601 202.872C264.544 202.592 264.486 202.298 264.429 201.985C264.37 201.674 264.321 201.357 264.276 201.035C264.234 200.712 264.201 200.413 264.182 200.134C264.152 200.413 264.115 200.712 264.067 201.035C264.019 201.357 263.971 201.674 263.923 201.985C263.875 202.298 263.817 202.592 263.75 202.872L262.657 207.91C262.637 207.999 262.594 208.066 262.526 208.112C262.462 208.16 262.28 208.184 261.984 208.184ZM262.645 205.779V204.454H265.972V205.779H262.645Z" fill="#5850EC"/>
<path d="M209.574 290.654V280.805C209.622 280.65 209.704 280.574 209.818 280.574H213.275C213.275 280.891 213.269 281.122 213.26 281.267C213.25 281.41 213.231 281.506 213.202 281.554C213.174 281.602 213.126 281.626 213.059 281.626H210.739V289.603H213.216C213.216 289.93 213.211 290.167 213.201 290.316C213.192 290.466 213.172 290.558 213.144 290.597C213.114 290.635 213.062 290.654 212.985 290.654H209.574ZM209.731 285.699V284.635H212.913C212.913 285.076 212.905 285.363 212.884 285.497C212.864 285.632 212.803 285.699 212.697 285.699H209.731Z" fill="white"/>
<path d="M214.167 290.654V280.805C214.167 280.65 214.249 280.574 214.412 280.574L215.333 280.805L215.175 282.49C215.194 282.625 215.211 282.812 215.226 283.051C215.239 283.292 215.253 283.558 215.26 283.849C215.27 284.143 215.279 284.448 215.29 284.765C215.299 285.08 215.309 285.382 215.32 285.671C215.329 285.958 215.335 286.212 215.335 286.434C215.335 286.655 215.335 286.818 215.335 286.923V290.422C215.335 290.5 215.317 290.552 215.284 290.581C215.251 290.609 215.154 290.629 214.997 290.638C214.835 290.65 214.56 290.654 214.167 290.654ZM218.212 290.654L216.558 286.695C216.5 286.541 216.421 286.323 216.32 286.04C216.22 285.758 216.111 285.439 215.996 285.082C215.881 284.727 215.764 284.368 215.644 284.009C215.523 283.649 215.414 283.316 215.312 283.009C215.212 282.701 215.103 282.36 214.988 281.986L214.325 281.267L214.414 280.574H215.306L216.919 284.463C216.986 284.626 217.071 284.854 217.171 285.148C217.271 285.439 217.381 285.762 217.494 286.112C217.609 286.462 217.725 286.814 217.84 287.164C217.955 287.513 218.06 287.838 218.157 288.136C218.253 288.432 218.363 288.759 218.489 289.114L219.195 289.963L219.08 290.654H218.212ZM219.077 290.654L218.155 290.424L218.285 288.495C218.265 288.351 218.253 288.161 218.242 287.926C218.233 287.691 218.223 287.431 218.212 287.147C218.203 286.864 218.193 286.574 218.184 286.277C218.173 285.979 218.166 285.692 218.161 285.42C218.157 285.148 218.154 284.904 218.154 284.693C218.154 284.482 218.154 284.319 218.154 284.204V280.806C218.154 280.73 218.17 280.676 218.203 280.649C218.236 280.619 218.336 280.601 218.499 280.591C218.661 280.582 218.936 280.576 219.32 280.576V290.425C219.322 290.576 219.241 290.654 219.077 290.654Z" fill="white"/>
<path d="M222.735 290.754C222.552 290.754 222.404 290.675 222.295 290.517C222.184 290.359 222.101 290.161 222.042 289.92C221.948 289.526 221.831 289.034 221.698 288.445C221.564 287.853 221.422 287.222 221.274 286.544C221.124 285.868 220.976 285.198 220.826 284.536C220.677 283.873 220.545 283.268 220.43 282.722C220.315 282.174 220.186 281.573 220.041 280.921C220.011 280.797 220.008 280.707 220.026 280.655C220.044 280.603 220.137 280.574 220.3 280.574H221.251L222.448 286.148C222.534 286.57 222.609 286.995 222.676 287.424C222.744 287.85 222.807 288.254 222.863 288.634C222.922 289.012 222.974 289.354 223.022 289.663C223.059 289.354 223.106 289.011 223.16 288.634C223.212 288.254 223.272 287.851 223.339 287.424C223.406 286.996 223.474 286.571 223.541 286.148L224.621 280.921C224.64 280.806 224.666 280.719 224.701 280.662C224.733 280.604 224.808 280.574 224.923 280.574H225.931L223.714 290.699C223.56 290.718 223.415 290.732 223.275 290.741C223.134 290.75 222.955 290.754 222.735 290.754Z" fill="white"/>
<path d="M226.607 290.654V281.107C226.607 280.924 226.626 280.797 226.663 280.725C226.702 280.654 226.805 280.61 226.973 280.595C227.14 280.58 227.417 280.573 227.801 280.573V290.422C227.801 290.5 227.782 290.552 227.745 290.581C227.706 290.609 227.607 290.629 227.45 290.638C227.29 290.65 227.01 290.654 226.607 290.654Z" fill="white"/>
<path d="M229.227 290.682C229.149 290.682 229.044 290.676 228.91 290.667C228.775 290.657 228.636 290.648 228.492 290.638L231.056 280.731C231.086 280.597 231.234 280.529 231.503 280.529C231.599 280.529 231.697 280.534 231.798 280.544C231.898 280.553 231.981 280.564 232.05 280.573L234.627 290.437C234.647 290.515 234.626 290.575 234.563 290.617C234.5 290.66 234.353 290.682 234.123 290.682C234.036 290.682 233.939 290.679 233.828 290.675C233.719 290.669 233.586 290.662 233.432 290.653L232.079 284.978C232.002 284.652 231.929 284.322 231.862 283.985C231.795 283.649 231.735 283.326 231.682 283.015C231.63 282.702 231.593 282.43 231.575 282.201C231.555 282.43 231.519 282.702 231.467 283.015C231.415 283.326 231.355 283.65 231.288 283.985C231.22 284.32 231.143 284.652 231.057 284.978L229.777 290.451C229.758 290.528 229.719 290.585 229.662 290.623C229.601 290.663 229.459 290.682 229.227 290.682ZM229.976 288.091V287.024H233.417V288.091H229.976Z" fill="white"/>
<path d="M235.332 290.654V280.805C235.379 280.65 235.462 280.574 235.577 280.574H236.268C236.383 280.574 236.459 280.652 236.498 280.805V290.424C236.498 290.502 236.48 290.554 236.447 290.582C236.414 290.611 236.316 290.63 236.153 290.639C235.99 290.65 235.716 290.654 235.332 290.654ZM235.735 286.564C235.59 286.564 235.515 286.54 235.505 286.492C235.496 286.444 235.49 286.362 235.49 286.247V280.848C235.49 280.818 235.493 280.766 235.498 280.689C235.504 280.613 235.557 280.574 235.664 280.574H237.004C237.608 280.574 238.106 280.673 238.501 280.87C238.894 281.066 239.184 281.374 239.371 281.792C239.559 282.209 239.652 282.755 239.652 283.426C239.652 284.02 239.582 284.516 239.443 284.916C239.302 285.315 239.111 285.632 238.865 285.874C238.622 286.114 238.341 286.289 238.024 286.401C237.706 286.51 237.37 286.565 237.014 286.565H235.735V286.564ZM236.47 285.486H237.131C237.4 285.486 237.623 285.415 237.801 285.276C237.977 285.136 238.115 284.911 238.21 284.599C238.305 284.288 238.354 283.878 238.354 283.368C238.354 283.003 238.321 282.687 238.254 282.417C238.187 282.149 238.07 281.946 237.902 281.805C237.735 281.666 237.506 281.596 237.219 281.596H236.47V285.486ZM239.163 290.683C239.075 290.683 238.973 290.68 238.854 290.675C238.732 290.669 238.605 290.662 238.471 290.653C238.423 289.827 238.324 289.133 238.176 288.571C238.026 288.01 237.869 287.563 237.702 287.231C237.534 286.9 237.325 286.591 237.075 286.302C237.038 286.188 237.065 286.1 237.162 286.043L237.796 285.698C237.911 285.698 237.994 285.741 238.041 285.828C238.348 286.173 238.607 286.532 238.819 286.902C239.03 287.271 239.226 287.744 239.41 288.32C239.592 288.895 239.707 289.586 239.755 290.394C239.755 290.499 239.725 290.573 239.669 290.615C239.609 290.662 239.441 290.683 239.163 290.683Z" fill="white"/>
<path d="M264.013 282.327L253.662 277.474L257.412 288.276L259.181 284.475L262.502 288.218L263.4 287.421L260.08 283.682L264.013 282.327ZM259.444 283.911L259.45 283.899L259.461 283.893L259.444 283.911Z" fill="#374151"/>
<path d="M356.919 322.865C352.342 303.677 343.178 281.51 309.884 262.607L310.11 262.205C324.66 270.467 335.503 279.708 343.257 290.452C349.785 299.503 354.269 309.767 357.369 322.757L356.919 322.865Z" fill="#1F573B"/>
<path d="M360.976 323.6C358.227 316.638 354.188 312.422 348.633 310.718C343.342 309.093 336.364 309.667 327.306 312.479L327.168 312.038C345.737 306.28 355.975 309.69 361.404 323.431L360.976 323.6Z" fill="#1F573B"/>
<path d="M359.198 322.935L358.745 322.853C361.932 305.056 361.624 271.761 350.963 253.462L351.361 253.23C357.671 264.061 359.868 278.831 360.601 289.314C361.555 302.992 360.502 315.651 359.198 322.935Z" fill="#1F573B"/>
<path d="M360.954 301.89L360.508 301.778C363.043 291.831 371.325 278.328 380.206 269.672L380.527 270.002C371.702 278.608 363.468 292.02 360.954 301.89Z" fill="#1F573B"/>
<path d="M362.367 318.821L361.953 318.622C365.989 310.105 371.65 304.677 378.774 302.483C387.274 299.868 396.272 302.444 401.858 305.725L401.626 306.123C396.123 302.892 387.266 300.354 378.912 302.925C371.916 305.076 366.348 310.424 362.367 318.821Z" fill="#1F573B"/>
<path d="M296.358 254.697C305.773 256.655 309.172 261.722 310.422 263.971C299.406 260.892 296.358 254.697 296.358 254.697Z" fill="#27BEC2"/>
<path d="M312.761 253.586C312.217 261.321 321.093 270.417 321.093 270.417C322.055 264.321 314.783 255.387 312.761 253.586Z" fill="#27BEC2"/>
<path d="M317.103 267.844C306.947 264.545 299.052 268.269 299.052 268.269C307.774 271.52 308.237 268.803 311.872 269.112C315.509 269.423 317.103 267.844 317.103 267.844Z" fill="#27BEC2"/>
<path d="M324.491 272.787C317.07 271.235 316.14 273.762 312.257 274.251C308.375 274.74 306.532 274.847 306.532 274.847C311.551 277.963 317.097 275.261 320.122 274.793C323.146 274.326 324.491 272.787 324.491 272.787Z" fill="#27BEC2"/>
<path d="M330.077 277.141C328.743 273.801 325.784 271.36 325.662 266.15C325.539 260.94 326.347 258.795 326.347 258.795C329.797 265.196 331.385 270.913 330.077 277.141Z" fill="#27BEC2"/>
<path d="M317.465 283.411C321.198 284.029 323.956 285.325 329.172 284.59C334.388 283.851 337.572 284.165 337.572 284.165C331.851 280.655 328.813 280.507 325.041 281.033C321.271 281.563 319.321 282.75 317.465 283.411Z" fill="#27BEC2"/>
<path d="M339.769 286.574C334.255 278.09 333.584 266.343 335.153 262.918C336.95 269.25 338.749 271.263 339.439 276.921C340.131 282.578 339.769 286.574 339.769 286.574Z" fill="#27BEC2"/>
<path d="M346.762 295.856C342.156 285.824 343.028 275.114 344.899 273.354C344.956 275.793 347.953 282.52 348.34 287.725C348.725 292.928 346.762 295.856 346.762 295.856Z" fill="#27BEC2"/>
<path d="M344.92 293.117C335.866 287.687 324.875 289.265 322.533 290.376C327.16 290.663 328.638 292.432 335.006 293.339C340.685 294.148 344.92 293.117 344.92 293.117Z" fill="#27BEC2"/>
<path d="M350.657 288.958C350.82 292.264 352.749 295.717 354.001 300.372C355.217 304.889 353.6 309.067 353.6 309.067C349.389 302.417 349.979 290.15 350.657 288.958Z" fill="#27BEC2"/>
<path d="M330.729 298.367C336.53 298.143 343.357 296.662 350.525 302.391C345.536 303.299 336.183 302.197 330.729 298.367Z" fill="#27BEC2"/>
<path d="M354.08 310.259C347.117 303.085 333.943 304.184 334.124 304.445C345.342 309.988 350.848 310.283 354.08 310.259Z" fill="#27BEC2"/>
<path d="M329.112 312.581C319.829 313.843 316.544 320.079 314.35 324.003C321.16 321.907 326.896 316.337 329.112 312.581Z" fill="#27BEC2"/>
<path d="M336.324 310.675C328.041 307.579 321.799 307.795 316.249 312.881C320.214 311.546 327.134 312.331 336.324 310.675Z" fill="#27BEC2"/>
<path d="M326.507 321.165C331.647 316.027 332.742 312.431 339.282 310.192C337.608 317.015 330.959 319.653 326.507 321.165Z" fill="#27BEC2"/>
<path d="M345.315 309.984C341.652 304.718 332.23 304.319 330.385 304.37C335.95 308.142 340.071 309.387 345.315 309.984Z" fill="#27BEC2"/>
<path d="M351.442 311.397C343.931 309.896 339.699 314.324 337.023 317.4C341.99 315.215 348.2 315.553 351.442 311.397Z" fill="#27BEC2"/>
<path d="M340.056 238.429C345.63 242.586 347.981 244.314 349.312 247.647C350.646 250.981 351.085 254.423 351.085 254.423C346.946 250.87 343.185 247.988 340.056 238.429Z" fill="#27BEC2"/>
<path d="M350.832 243.718C356.617 255.198 354.855 262.453 354.855 262.453C353.56 257.183 349.438 250.613 350.832 243.718Z" fill="#27BEC2"/>
<path d="M356.866 268.695C353.758 265.556 346.698 262.818 343.565 253.062C350.945 258.167 352.472 258.479 356.866 268.695Z" fill="#27BEC2"/>
<path d="M358.628 253.698C362.377 264.433 358.588 275.612 358.588 275.612C358.701 270.919 355.698 263.928 358.628 253.698Z" fill="#27BEC2"/>
<path d="M346.801 264.336C355.164 266.449 356.16 275.226 358.99 277.69C352.514 277.266 352.882 270.463 346.801 264.336Z" fill="#27BEC2"/>
<path d="M360.245 286.095C365.542 281.252 361.335 270.698 363.32 265.188C358.819 270.324 359.908 277.005 360.276 280.175C360.644 283.346 360.532 284.209 360.245 286.095Z" fill="#27BEC2"/>
<path d="M360.946 291.917C353.575 288.722 354.004 279.607 348.128 277.631C352.1 276.417 356.495 281.004 357.976 284.992C359.455 288.981 359.691 290.296 360.946 291.917Z" fill="#27BEC2"/>
<path d="M361.141 297.468C363.94 293.733 364.051 290.789 364.161 287.023C364.271 283.26 365.255 280.2 366.213 278.859C362.104 280.869 361.947 287.274 361.824 290.973C361.7 294.67 361.54 296.216 361.141 297.468Z" fill="#27BEC2"/>
<path d="M361.236 302.36C354.222 299.4 356.178 292.032 350.856 286.314C356.072 287.843 356.978 292.406 358.52 296.659C360.065 300.911 360.444 301.542 361.236 302.36Z" fill="#27BEC2"/>
<path d="M361.224 306.229C367.356 305.097 368.36 300.124 370.519 296.509C372.679 292.895 373.446 291.888 374.883 291.26C372.104 290.928 368.019 294.06 365.747 298.337C363.469 302.614 362.956 304.804 361.224 306.229Z" fill="#27BEC2"/>
<path d="M361.01 312.366C355.51 309.268 356.823 300.435 354.3 297.086C358.787 300.881 358.543 303.529 359.276 306.674C360.008 309.822 360.415 311.586 361.01 312.366Z" fill="#27BEC2"/>
<path d="M360.705 316.606C367.607 312.986 371.014 300.589 373.727 298.216C367.791 301.645 365.98 305.523 364.043 310.188C362.107 314.854 361.416 315.507 360.705 316.606Z" fill="#27BEC2"/>
<path d="M362.838 296.481C369.996 293.881 374.149 285.3 377.357 284.156C373.829 282.837 368.062 288.252 366.728 289.999C365.394 291.746 363.275 295.266 362.838 296.481Z" fill="#27BEC2"/>
<path d="M365.656 290.011C362.288 282.943 369.082 277.502 368.717 273.076C369.967 278.575 367.503 283.235 366.877 286.038C366.249 288.84 365.656 290.011 365.656 290.011Z" fill="#27BEC2"/>
<path d="M368.871 284.12C378.487 281.736 379.899 277.284 385.401 275.504C379.592 275.443 374.995 278.292 372.469 280.332C369.943 282.372 368.871 284.12 368.871 284.12Z" fill="#27BEC2"/>
<path d="M371.528 279.94C369.022 275.095 374.346 268.38 372.931 264.321C376.087 269.389 373.914 276.153 371.528 279.94Z" fill="#27BEC2"/>
<path d="M374.542 275.75C383.602 274.823 387.637 266.716 391.941 264.517C387.001 264.912 382.054 270.589 380.041 272.014C378.028 273.435 374.542 275.75 374.542 275.75Z" fill="#27BEC2"/>
<path d="M376.851 272.886C375.365 266.702 380.315 261.239 383.608 255.355C384.131 260.753 378.501 269.034 376.851 272.886Z" fill="#27BEC2"/>
<path d="M379.216 270.227C381.436 262.664 387.027 257.585 393.784 255.974C389.669 257.721 389.577 261.732 384.601 266.368C380.731 269.978 379.216 270.227 379.216 270.227Z" fill="#27BEC2"/>
<path d="M401.487 304.425C410.88 306.781 416.622 312.388 418.098 316.312C414.797 313.419 409.846 313.404 405.607 309.939C401.372 306.477 401.487 304.425 401.487 304.425Z" fill="#27BEC2"/>
<path d="M391.926 301.331C403.443 308.852 407.587 312.666 407.537 316.162C406.268 312.697 401.32 311.13 397.12 308.092C391.998 304.383 391.926 301.331 391.926 301.331Z" fill="#27BEC2"/>
<path d="M415.841 307.258C412.168 302.593 406.211 300.479 401.397 300.609C395.789 300.758 393.899 301.711 393.899 301.711C400.868 304.705 408.999 302.536 415.841 307.258Z" fill="#27BEC2"/>
<path d="M387.254 300.947C393.185 295.12 402.032 298.08 405.053 297.481C402.072 299.795 392.291 301.833 387.254 300.947Z" fill="#27BEC2"/>
<path d="M380.243 301.914C389.692 299.097 391.748 293.77 391.748 293.77C381.532 296.183 380.243 301.914 380.243 301.914Z" fill="#27BEC2"/>
<path d="M381.233 294.74C377.191 299.595 373.775 300.226 371.665 303.115C370.087 305.272 370.503 307.581 370.503 307.581C377.81 303.531 380.651 298.053 381.233 294.74Z" fill="#27BEC2"/>
<path d="M396.96 311.012C394.883 308.409 391.551 306.971 387.573 306.139C383.595 305.308 381.559 301.573 381.559 301.573C389.494 300.841 395.315 306.969 396.96 311.012Z" fill="#27BEC2"/>
<path d="M389.331 309.434C386.312 306.826 383.33 307.25 379.555 307.602C375.78 307.953 372.064 306.205 372.064 306.205C375.891 302.894 385.238 302.236 389.331 309.434Z" fill="#27BEC2"/>
<path d="M366.571 312.238C367.757 308.791 377.802 306.009 383.086 311.849C380.461 310.572 377.277 310.859 374.515 311.712C370.311 313.013 366.571 312.238 366.571 312.238Z" fill="#27BEC2"/>
<path d="M363.064 316.919C364.861 313.853 373.684 310.893 378.87 315.555C375.353 314.324 372.448 316.264 369.151 316.943C365.854 317.622 363.064 316.919 363.064 316.919Z" fill="#27BEC2"/>
<path d="M377.808 357.775H342.506C341.918 357.775 341.443 357.301 341.443 356.713V317.451H378.87V356.713C378.87 357.3 378.396 357.775 377.808 357.775Z" fill="#6875F5"/>
<path opacity="0.2" d="M378.869 317.451V320.194H349.169V357.775H342.503C341.915 357.775 341.441 357.301 341.441 356.713V317.451H378.869Z" fill="#5145CD"/>
</g>
<defs>
<linearGradient id="paint0_linear" x1="60.9037" y1="412.578" x2="60.9037" y2="380.998" gradientUnits="userSpaceOnUse">
<stop stop-color="#FFA98E"/>
<stop offset="1" stop-color="#FFC5A4"/>
</linearGradient>
<linearGradient id="paint1_linear" x1="50.2743" y1="411.216" x2="50.2743" y2="397.383" gradientUnits="userSpaceOnUse">
<stop stop-color="#6B5177"/>
<stop offset="1" stop-color="#AE9AA1"/>
</linearGradient>
<linearGradient id="paint2_linear" x1="271.963" y1="364.061" x2="274.021" y2="357.55" gradientUnits="userSpaceOnUse">
<stop stop-color="#FF937F"/>
<stop offset="1" stop-color="#E8868D"/>
</linearGradient>
<linearGradient id="paint3_linear" x1="273.49" y1="359.586" x2="276.257" y2="350.832" gradientUnits="userSpaceOnUse">
<stop stop-color="#FF937F"/>
<stop offset="1" stop-color="#E8868D"/>
</linearGradient>
<linearGradient id="paint4_linear" x1="269.883" y1="350.746" x2="271.534" y2="345.524" gradientUnits="userSpaceOnUse">
<stop stop-color="#FF937F"/>
<stop offset="1" stop-color="#E8868D"/>
</linearGradient>
<linearGradient id="paint5_linear" x1="94.3282" y1="457.09" x2="94.3282" y2="393.638" gradientUnits="userSpaceOnUse">
<stop stop-color="#9D5142"/>
<stop offset="1" stop-color="#D1989D"/>
</linearGradient>
<clipPath id="clip0">
<path d="M0 8C0 3.58172 3.58172 0 8 0H432C436.418 0 440 3.58172 440 8V448.517C440 452.935 436.418 456.517 432 456.517H7.99999C3.58171 456.517 0 452.935 0 448.517V8Z" fill="white"/>
</clipPath>
</defs>
</svg>
